<svg xmlns="http://www.w3.org/2000/svg" xmlns:xlink="http://www.w3.org/1999/xlink" width="280" zoomAndPan="magnify" viewBox="0 0 210 60" height="80" preserveAspectRatio="xMidYMid meet" version="1.0"><defs><g/><clipPath id="5475e92cef"><path d="M 34 9.589844 L 85 9.589844 L 85 50.089844 L 34 50.089844 Z M 34 9.589844 " clip-rule="nonzero"/></clipPath></defs><g clip-path="url(#5475e92cef)"><path fill="#051a40" d="M 71.796875 43.113281 C 71.796875 44.339844 71.371094 47.957031 71.101562 49.023438 C 70.730469 50.40625 70.253906 50.40625 68.230469 50.40625 C 64.238281 50.40625 61.3125 50.300781 59.023438 50.246094 C 56.734375 50.140625 55.085938 50.085938 53.488281 50.085938 C 52.902344 50.085938 51.730469 50.085938 50.457031 50.140625 C 49.230469 50.140625 47.847656 50.246094 46.78125 50.246094 C 46.089844 50.246094 45.71875 50.085938 45.71875 49.714844 C 45.71875 49.449219 45.929688 49.289062 46.570312 49.289062 C 47.367188 49.289062 48.007812 49.179688 48.484375 49.074219 C 49.109375 48.949219 49.457031 48.5 49.683594 47.835938 C 52.261719 47.628906 55.035156 47.148438 57.902344 46.417969 C 58.746094 47.28125 60.351562 47.53125 63.386719 47.53125 C 64.769531 47.53125 67.003906 47.53125 68.390625 46.894531 C 69.773438 46.253906 70.410156 45.136719 70.785156 42.953125 C 70.890625 42.371094 70.996094 42.15625 71.371094 42.15625 C 71.796875 42.15625 71.796875 42.582031 71.796875 43.113281 Z M 45.824219 10.972656 C 46.570312 10.972656 47.476562 11.023438 47.902344 11.132812 C 49.65625 11.503906 50.082031 12.355469 50.1875 14.164062 C 50.296875 15.867188 50.296875 17.355469 50.296875 25.445312 L 50.296875 34.8125 C 50.296875 38.511719 50.296875 41.8125 50.179688 44.171875 C 52.382812 43.855469 54.671875 43.351562 56.992188 42.675781 C 56.957031 40.824219 57 36.492188 57 34.8125 L 57 30.609375 C 57 30.289062 57.054688 30.074219 57.320312 30.074219 C 58.597656 30.074219 63.867188 30.128906 64.875 30.234375 C 66.847656 30.449219 67.589844 31.246094 67.855469 32.3125 C 68.015625 33.003906 68.015625 33.695312 68.070312 34.226562 C 68.070312 34.492188 68.175781 34.707031 68.550781 34.707031 C 69.027344 34.707031 69.027344 34.121094 69.027344 33.695312 C 69.027344 33.324219 69.1875 31.195312 69.242188 30.128906 C 69.453125 27.414062 69.667969 26.5625 69.667969 26.246094 C 69.667969 25.925781 69.507812 25.820312 69.292969 25.820312 C 69.027344 25.820312 68.816406 26.085938 68.441406 26.511719 C 67.964844 27.042969 67.164062 27.203125 65.886719 27.308594 C 64.664062 27.414062 58.542969 27.414062 57.375 27.414062 C 57.054688 27.414062 57 27.203125 57 26.828125 L 57 13.367188 C 57 12.992188 57.109375 12.832031 57.375 12.832031 C 58.4375 12.832031 64.027344 12.941406 64.929688 13.046875 C 67.589844 13.367188 68.125 14.003906 68.496094 14.960938 C 68.761719 15.601562 68.816406 16.503906 68.816406 16.878906 C 68.816406 17.355469 68.921875 17.625 69.292969 17.625 C 69.667969 17.625 69.773438 17.304688 69.828125 17.039062 C 69.933594 16.398438 70.039062 14.058594 70.09375 13.527344 C 70.253906 11.078125 70.519531 10.4375 70.519531 10.066406 C 70.519531 9.800781 70.464844 9.585938 70.199219 9.585938 C 69.933594 9.585938 69.613281 9.746094 69.347656 9.800781 C 68.921875 9.90625 68.070312 10.011719 67.058594 10.121094 C 66.046875 10.171875 55.457031 10.171875 53.753906 10.171875 C 53.007812 10.171875 51.785156 10.121094 50.402344 10.066406 C 49.070312 10.066406 47.527344 10.011719 46.089844 10.011719 C 45.292969 10.011719 44.921875 10.121094 44.921875 10.492188 C 44.921875 10.863281 45.238281 10.972656 45.824219 10.972656 Z M 49.15625 44.121094 C 49.160156 44.050781 49.164062 43.976562 49.164062 43.902344 C 47.917969 43.917969 46.734375 43.84375 45.628906 43.675781 C 36.222656 42.230469 36.238281 34.429688 45.671875 26.242188 C 46.792969 25.269531 48 24.332031 49.269531 23.441406 C 49.269531 22.457031 49.269531 21.59375 49.269531 20.828125 C 46.808594 22.324219 44.503906 23.976562 42.460938 25.75 C 32.492188 34.398438 32.472656 42.648438 42.414062 44.171875 C 44.4375 44.480469 46.71875 44.488281 49.148438 44.230469 Z M 58.027344 16.429688 L 58.027344 18.453125 C 61.128906 17.027344 64.332031 15.882812 67.433594 15.085938 C 67.226562 14.675781 66.804688 14.324219 64.972656 14.085938 C 62.679688 14.699219 60.339844 15.488281 58.027344 16.429688 Z M 78.507812 12.851562 C 76.320312 12.515625 73.828125 12.535156 71.171875 12.859375 C 71.152344 13.082031 71.132812 13.328125 71.117188 13.59375 L 71.117188 13.609375 L 71.113281 13.628906 C 71.101562 13.75 71.085938 14.003906 71.066406 14.304688 C 74.246094 13.765625 77.230469 13.648438 79.785156 14.039062 C 82.054688 14.386719 83.773438 15.105469 84.949219 16.109375 C 83.792969 14.488281 81.648438 13.335938 78.507812 12.851562 Z M 78.507812 12.851562 " fill-opacity="1" fill-rule="nonzero"/></g><path fill="#f80302" d="M 83.773438 11.265625 C 80.222656 10.722656 75.976562 11 71.472656 11.945312 C 74.625 11.496094 77.574219 11.433594 80.140625 11.828125 C 90.769531 13.457031 90.75 22.273438 80.09375 31.523438 C 69.4375 40.769531 52.179688 46.945312 41.550781 45.3125 C 38.984375 44.921875 37.039062 44.109375 35.714844 42.972656 C 37.015625 44.808594 39.441406 46.109375 42.988281 46.652344 C 54.222656 48.375 72.460938 41.851562 83.722656 32.078125 C 94.984375 22.308594 95.007812 12.988281 83.773438 11.265625 Z M 83.773438 11.265625 " fill-opacity="1" fill-rule="nonzero"/><g fill="#051a40" fill-opacity="1"><g transform="translate(93.787716, 28.811348)"><g><path d="M 4.03125 -10.890625 L 8.09375 -10.890625 L 8.09375 -8.203125 L 4.03125 -8.203125 L 4.03125 -2.6875 L 9.140625 -2.6875 L 9.140625 0 L 1.078125 0 L 1.078125 -18.8125 L 9.140625 -18.8125 L 9.140625 -16.125 L 4.03125 -16.125 Z M 4.03125 -10.890625 "/></g></g></g><g fill="#051a40" fill-opacity="1"><g transform="translate(103.676281, 28.811348)"><g><path d="M 0.828125 -14.296875 C 0.828125 -15.816406 1.210938 -16.984375 1.984375 -17.796875 C 2.753906 -18.617188 3.867188 -19.03125 5.328125 -19.03125 C 6.773438 -19.03125 7.882812 -18.617188 8.65625 -17.796875 C 9.425781 -16.984375 9.8125 -15.816406 9.8125 -14.296875 L 9.8125 -4.515625 C 9.8125 -3.453125 9.625 -2.570312 9.25 -1.875 C 9.320312 -1.695312 9.414062 -1.585938 9.53125 -1.546875 C 9.644531 -1.503906 9.828125 -1.484375 10.078125 -1.484375 L 10.34375 -1.484375 L 10.34375 1.15625 L 9.9375 1.15625 C 9.28125 1.15625 8.738281 1.039062 8.3125 0.8125 C 7.894531 0.59375 7.585938 0.273438 7.390625 -0.140625 C 7.085938 -0.0234375 6.765625 0.0625 6.421875 0.125 C 6.078125 0.1875 5.710938 0.21875 5.328125 0.21875 C 3.867188 0.21875 2.753906 -0.1875 1.984375 -1 C 1.210938 -1.820312 0.828125 -2.992188 0.828125 -4.515625 Z M 3.796875 -4.328125 C 3.796875 -3.648438 3.929688 -3.171875 4.203125 -2.890625 C 4.484375 -2.609375 4.859375 -2.46875 5.328125 -2.46875 C 5.785156 -2.46875 6.15625 -2.609375 6.4375 -2.890625 C 6.71875 -3.171875 6.859375 -3.648438 6.859375 -4.328125 L 6.859375 -14.484375 C 6.859375 -15.160156 6.71875 -15.640625 6.4375 -15.921875 C 6.15625 -16.203125 5.785156 -16.34375 5.328125 -16.34375 C 4.859375 -16.34375 4.484375 -16.203125 4.203125 -15.921875 C 3.929688 -15.640625 3.796875 -15.160156 3.796875 -14.484375 Z M 3.796875 -4.328125 "/></g></g></g><g fill="#051a40" fill-opacity="1"><g transform="translate(114.317226, 28.811348)"><g><path d="M 3.890625 -18.8125 L 3.890625 -4.296875 C 3.890625 -3.617188 4.03125 -3.144531 4.3125 -2.875 C 4.59375 -2.601562 4.960938 -2.46875 5.421875 -2.46875 C 5.890625 -2.46875 6.257812 -2.601562 6.53125 -2.875 C 6.8125 -3.144531 6.953125 -3.617188 6.953125 -4.296875 L 6.953125 -18.8125 L 9.75 -18.8125 L 9.75 -4.484375 C 9.75 -2.960938 9.378906 -1.796875 8.640625 -0.984375 C 7.898438 -0.171875 6.800781 0.234375 5.34375 0.234375 C 3.894531 0.234375 2.796875 -0.171875 2.046875 -0.984375 C 1.304688 -1.796875 0.9375 -2.960938 0.9375 -4.484375 L 0.9375 -18.8125 Z M 3.890625 -18.8125 "/></g></g></g><g fill="#051a40" fill-opacity="1"><g transform="translate(125.011912, 28.811348)"><g><path d="M 1.078125 -18.8125 L 4.03125 -18.8125 L 4.03125 0 L 1.078125 0 Z M 1.078125 -18.8125 "/></g></g></g><g fill="#051a40" fill-opacity="1"><g transform="translate(130.117419, 28.811348)"><g><path d="M 0.265625 -18.8125 L 9.40625 -18.8125 L 9.40625 -16.125 L 6.3125 -16.125 L 6.3125 0 L 3.359375 0 L 3.359375 -16.125 L 0.265625 -16.125 Z M 0.265625 -18.8125 "/></g></g></g><g fill="#051a40" fill-opacity="1"><g transform="translate(139.791007, 28.811348)"><g><path d="M 3.84375 -6.234375 L 0.109375 -18.8125 L 3.203125 -18.8125 L 5.453125 -10.234375 L 7.71875 -18.8125 L 10.53125 -18.8125 L 6.796875 -6.234375 L 6.796875 0 L 3.84375 0 Z M 3.84375 -6.234375 "/></g></g></g><g fill="#f80302" fill-opacity="1"><g transform="translate(92.616404, 50.688651)"><g><path d="M 0.703125 -14.296875 C 0.703125 -15.816406 1.0625 -16.984375 1.78125 -17.796875 C 2.507812 -18.617188 3.597656 -19.03125 5.046875 -19.03125 C 6.503906 -19.03125 7.59375 -18.617188 8.3125 -17.796875 C 9.039062 -16.984375 9.40625 -15.816406 9.40625 -14.296875 L 9.40625 -13.578125 L 6.609375 -13.578125 L 6.609375 -14.484375 C 6.609375 -15.160156 6.476562 -15.640625 6.21875 -15.921875 C 5.957031 -16.203125 5.597656 -16.34375 5.140625 -16.34375 C 4.671875 -16.34375 4.304688 -16.203125 4.046875 -15.921875 C 3.785156 -15.640625 3.65625 -15.160156 3.65625 -14.484375 C 3.65625 -13.835938 3.796875 -13.269531 4.078125 -12.78125 C 4.367188 -12.289062 4.726562 -11.820312 5.15625 -11.375 C 5.59375 -10.9375 6.054688 -10.5 6.546875 -10.0625 C 7.035156 -9.625 7.492188 -9.144531 7.921875 -8.625 C 8.359375 -8.101562 8.71875 -7.507812 9 -6.84375 C 9.289062 -6.1875 9.4375 -5.410156 9.4375 -4.515625 C 9.4375 -2.992188 9.0625 -1.820312 8.3125 -1 C 7.570312 -0.1875 6.476562 0.21875 5.03125 0.21875 C 3.570312 0.21875 2.472656 -0.1875 1.734375 -1 C 0.992188 -1.820312 0.625 -2.992188 0.625 -4.515625 L 0.625 -5.8125 L 3.40625 -5.8125 L 3.40625 -4.328125 C 3.40625 -3.648438 3.546875 -3.175781 3.828125 -2.90625 C 4.109375 -2.632812 4.476562 -2.5 4.9375 -2.5 C 5.40625 -2.5 5.78125 -2.632812 6.0625 -2.90625 C 6.34375 -3.175781 6.484375 -3.648438 6.484375 -4.328125 C 6.484375 -4.972656 6.335938 -5.539062 6.046875 -6.03125 C 5.753906 -6.519531 5.394531 -6.984375 4.96875 -7.421875 C 4.539062 -7.867188 4.078125 -8.3125 3.578125 -8.75 C 3.085938 -9.1875 2.628906 -9.664062 2.203125 -10.1875 C 1.773438 -10.707031 1.414062 -11.296875 1.125 -11.953125 C 0.84375 -12.617188 0.703125 -13.398438 0.703125 -14.296875 Z M 0.703125 -14.296875 "/></g></g></g><g fill="#f80302" fill-opacity="1"><g transform="translate(102.666193, 50.688651)"><g><path d="M 3.796875 -4.328125 C 3.796875 -3.648438 3.929688 -3.171875 4.203125 -2.890625 C 4.484375 -2.609375 4.859375 -2.46875 5.328125 -2.46875 C 5.785156 -2.46875 6.15625 -2.609375 6.4375 -2.890625 C 6.71875 -3.171875 6.859375 -3.648438 6.859375 -4.328125 L 6.859375 -14.484375 C 6.859375 -15.160156 6.71875 -15.640625 6.4375 -15.921875 C 6.15625 -16.203125 5.785156 -16.34375 5.328125 -16.34375 C 4.859375 -16.34375 4.484375 -16.203125 4.203125 -15.921875 C 3.929688 -15.640625 3.796875 -15.160156 3.796875 -14.484375 Z M 0.828125 -14.296875 C 0.828125 -15.816406 1.210938 -16.984375 1.984375 -17.796875 C 2.753906 -18.617188 3.867188 -19.03125 5.328125 -19.03125 C 6.773438 -19.03125 7.882812 -18.617188 8.65625 -17.796875 C 9.425781 -16.984375 9.8125 -15.816406 9.8125 -14.296875 L 9.8125 -4.515625 C 9.8125 -2.992188 9.425781 -1.820312 8.65625 -1 C 7.882812 -0.1875 6.773438 0.21875 5.328125 0.21875 C 3.867188 0.21875 2.753906 -0.1875 1.984375 -1 C 1.210938 -1.820312 0.828125 -2.992188 0.828125 -4.515625 Z M 0.828125 -14.296875 "/></g></g></g><g fill="#f80302" fill-opacity="1"><g transform="translate(113.307138, 50.688651)"><g><path d="M 1.078125 -18.8125 L 4.03125 -18.8125 L 4.03125 -2.6875 L 8.890625 -2.6875 L 8.890625 0 L 1.078125 0 Z M 1.078125 -18.8125 "/></g></g></g><g fill="#f80302" fill-opacity="1"><g transform="translate(122.470181, 50.688651)"><g><path d="M 3.890625 -18.8125 L 3.890625 -4.296875 C 3.890625 -3.617188 4.03125 -3.144531 4.3125 -2.875 C 4.59375 -2.601562 4.960938 -2.46875 5.421875 -2.46875 C 5.890625 -2.46875 6.257812 -2.601562 6.53125 -2.875 C 6.8125 -3.144531 6.953125 -3.617188 6.953125 -4.296875 L 6.953125 -18.8125 L 9.75 -18.8125 L 9.75 -4.484375 C 9.75 -2.960938 9.378906 -1.796875 8.640625 -0.984375 C 7.898438 -0.171875 6.800781 0.234375 5.34375 0.234375 C 3.894531 0.234375 2.796875 -0.171875 2.046875 -0.984375 C 1.304688 -1.796875 0.9375 -2.960938 0.9375 -4.484375 L 0.9375 -18.8125 Z M 3.890625 -18.8125 "/></g></g></g><g fill="#f80302" fill-opacity="1"><g transform="translate(133.164868, 50.688651)"><g><path d="M 0.265625 -18.8125 L 9.40625 -18.8125 L 9.40625 -16.125 L 6.3125 -16.125 L 6.3125 0 L 3.359375 0 L 3.359375 -16.125 L 0.265625 -16.125 Z M 0.265625 -18.8125 "/></g></g></g><g fill="#f80302" fill-opacity="1"><g transform="translate(142.838455, 50.688651)"><g><path d="M 1.078125 -18.8125 L 4.03125 -18.8125 L 4.03125 0 L 1.078125 0 Z M 1.078125 -18.8125 "/></g></g></g><g fill="#f80302" fill-opacity="1"><g transform="translate(147.943962, 50.688651)"><g><path d="M 3.796875 -4.328125 C 3.796875 -3.648438 3.929688 -3.171875 4.203125 -2.890625 C 4.484375 -2.609375 4.859375 -2.46875 5.328125 -2.46875 C 5.785156 -2.46875 6.15625 -2.609375 6.4375 -2.890625 C 6.71875 -3.171875 6.859375 -3.648438 6.859375 -4.328125 L 6.859375 -14.484375 C 6.859375 -15.160156 6.71875 -15.640625 6.4375 -15.921875 C 6.15625 -16.203125 5.785156 -16.34375 5.328125 -16.34375 C 4.859375 -16.34375 4.484375 -16.203125 4.203125 -15.921875 C 3.929688 -15.640625 3.796875 -15.160156 3.796875 -14.484375 Z M 0.828125 -14.296875 C 0.828125 -15.816406 1.210938 -16.984375 1.984375 -17.796875 C 2.753906 -18.617188 3.867188 -19.03125 5.328125 -19.03125 C 6.773438 -19.03125 7.882812 -18.617188 8.65625 -17.796875 C 9.425781 -16.984375 9.8125 -15.816406 9.8125 -14.296875 L 9.8125 -4.515625 C 9.8125 -2.992188 9.425781 -1.820312 8.65625 -1 C 7.882812 -0.1875 6.773438 0.21875 5.328125 0.21875 C 3.867188 0.21875 2.753906 -0.1875 1.984375 -1 C 1.210938 -1.820312 0.828125 -2.992188 0.828125 -4.515625 Z M 0.828125 -14.296875 "/></g></g></g><g fill="#f80302" fill-opacity="1"><g transform="translate(158.584907, 50.688651)"><g><path d="M 3.703125 -13.625 L 3.703125 0 L 1.046875 0 L 1.046875 -18.8125 L 4.75 -18.8125 L 7.796875 -7.546875 L 7.796875 -18.8125 L 10.421875 -18.8125 L 10.421875 0 L 7.390625 0 Z M 3.703125 -13.625 "/></g></g></g><g fill="#f80302" fill-opacity="1"><g transform="translate(170.058856, 50.688651)"><g><path d="M 0.703125 -14.296875 C 0.703125 -15.816406 1.0625 -16.984375 1.78125 -17.796875 C 2.507812 -18.617188 3.597656 -19.03125 5.046875 -19.03125 C 6.503906 -19.03125 7.59375 -18.617188 8.3125 -17.796875 C 9.039062 -16.984375 9.40625 -15.816406 9.40625 -14.296875 L 9.40625 -13.578125 L 6.609375 -13.578125 L 6.609375 -14.484375 C 6.609375 -15.160156 6.476562 -15.640625 6.21875 -15.921875 C 5.957031 -16.203125 5.597656 -16.34375 5.140625 -16.34375 C 4.671875 -16.34375 4.304688 -16.203125 4.046875 -15.921875 C 3.785156 -15.640625 3.65625 -15.160156 3.65625 -14.484375 C 3.65625 -13.835938 3.796875 -13.269531 4.078125 -12.78125 C 4.367188 -12.289062 4.726562 -11.820312 5.15625 -11.375 C 5.59375 -10.9375 6.054688 -10.5 6.546875 -10.0625 C 7.035156 -9.625 7.492188 -9.144531 7.921875 -8.625 C 8.359375 -8.101562 8.71875 -7.507812 9 -6.84375 C 9.289062 -6.1875 9.4375 -5.410156 9.4375 -4.515625 C 9.4375 -2.992188 9.0625 -1.820312 8.3125 -1 C 7.570312 -0.1875 6.476562 0.21875 5.03125 0.21875 C 3.570312 0.21875 2.472656 -0.1875 1.734375 -1 C 0.992188 -1.820312 0.625 -2.992188 0.625 -4.515625 L 0.625 -5.8125 L 3.40625 -5.8125 L 3.40625 -4.328125 C 3.40625 -3.648438 3.546875 -3.175781 3.828125 -2.90625 C 4.109375 -2.632812 4.476562 -2.5 4.9375 -2.5 C 5.40625 -2.5 5.78125 -2.632812 6.0625 -2.90625 C 6.34375 -3.175781 6.484375 -3.648438 6.484375 -4.328125 C 6.484375 -4.972656 6.335938 -5.539062 6.046875 -6.03125 C 5.753906 -6.519531 5.394531 -6.984375 4.96875 -7.421875 C 4.539062 -7.867188 4.078125 -8.3125 3.578125 -8.75 C 3.085938 -9.1875 2.628906 -9.664062 2.203125 -10.1875 C 1.773438 -10.707031 1.414062 -11.296875 1.125 -11.953125 C 0.84375 -12.617188 0.703125 -13.398438 0.703125 -14.296875 Z M 0.703125 -14.296875 "/></g></g></g></svg>