<svg xmlns="http://www.w3.org/2000/svg" xmlns:xlink="http://www.w3.org/1999/xlink" width="280" zoomAndPan="magnify" viewBox="0 0 210 60" height="80" preserveAspectRatio="xMidYMid meet" version="1.0"><defs><g/></defs><rect x="-21" width="252" fill="#ffffff" y="-6" height="72" fill-opacity="1"/><rect x="-21" width="252" fill="#0f2952" y="-6" height="72" fill-opacity="1"/><path fill="#ffffff" d="M 6.144531 23.273438 L 11.875 23.273438 L 11.875 27.074219 L 6.144531 27.074219 L 6.144531 34.832031 L 13.335938 34.832031 L 13.335938 38.628906 L 1.980469 38.628906 L 1.980469 12.101562 L 13.335938 12.101562 L 13.335938 15.882812 L 6.144531 15.882812 Z M 6.144531 23.273438 " fill-opacity="1" fill-rule="nonzero"/><path fill="#ffffff" d="M 15.578125 18.460938 C 15.578125 16.324219 16.117188 14.679688 17.203125 13.523438 C 18.285156 12.378906 19.851562 11.796875 21.894531 11.796875 C 23.953125 11.796875 25.523438 12.378906 26.609375 13.523438 C 27.691406 14.679688 28.234375 16.324219 28.234375 18.460938 L 28.234375 32.273438 C 28.234375 33.765625 27.96875 34.996094 27.441406 35.96875 C 27.53125 36.230469 27.664062 36.390625 27.828125 36.457031 C 28 36.511719 28.265625 36.539062 28.621094 36.539062 L 28.984375 36.539062 L 28.984375 40.253906 L 28.417969 40.253906 C 27.480469 40.253906 26.714844 40.097656 26.121094 39.789062 C 25.539062 39.472656 25.105469 39.027344 24.820312 38.449219 C 24.382812 38.601562 23.933594 38.710938 23.460938 38.792969 C 22.984375 38.882812 22.464844 38.933594 21.894531 38.933594 C 19.851562 38.933594 18.285156 38.363281 17.203125 37.207031 C 16.117188 36.0625 15.578125 34.414062 15.578125 32.273438 Z M 19.742188 32.535156 C 19.742188 33.488281 19.9375 34.15625 20.332031 34.546875 C 20.722656 34.945312 21.246094 35.136719 21.894531 35.136719 C 22.554688 35.136719 23.085938 34.945312 23.480469 34.546875 C 23.871094 34.15625 24.070312 33.488281 24.070312 32.535156 L 24.070312 18.195312 C 24.070312 17.238281 23.871094 16.5625 23.480469 16.164062 C 23.085938 15.773438 22.554688 15.578125 21.894531 15.578125 C 21.246094 15.578125 20.722656 15.773438 20.332031 16.164062 C 19.9375 16.5625 19.742188 17.238281 19.742188 18.195312 Z M 19.742188 32.535156 " fill-opacity="1" fill-rule="nonzero"/><path fill="#ffffff" d="M 34.910156 12.101562 L 34.910156 32.558594 C 34.910156 33.523438 35.097656 34.191406 35.476562 34.566406 C 35.867188 34.949219 36.398438 35.136719 37.0625 35.136719 C 37.710938 35.136719 38.230469 34.949219 38.625 34.566406 C 39.015625 34.191406 39.214844 33.523438 39.214844 32.558594 L 39.214844 12.101562 L 43.15625 12.101562 L 43.15625 32.292969 C 43.15625 34.445312 42.628906 36.101562 41.570312 37.25 C 40.527344 38.402344 38.980469 38.976562 36.941406 38.976562 C 34.894531 38.976562 33.34375 38.402344 32.289062 37.25 C 31.242188 36.101562 30.726562 34.445312 30.726562 32.292969 L 30.726562 12.101562 Z M 34.910156 12.101562 " fill-opacity="1" fill-rule="nonzero"/><path fill="#ffffff" d="M 46.007812 12.101562 L 50.171875 12.101562 L 50.171875 38.628906 L 46.007812 38.628906 Z M 46.007812 12.101562 " fill-opacity="1" fill-rule="nonzero"/><path fill="#ffffff" d="M 52.070312 12.101562 L 64.945312 12.101562 L 64.945312 15.882812 L 60.601562 15.882812 L 60.601562 38.628906 L 56.414062 38.628906 L 56.414062 15.882812 L 52.070312 15.882812 Z M 52.070312 12.101562 " fill-opacity="1" fill-rule="nonzero"/><path fill="#ffffff" d="M 70.746094 29.835938 L 65.464844 12.101562 L 69.832031 12.101562 L 73.019531 24.1875 L 76.210938 12.101562 L 80.171875 12.101562 L 74.910156 29.835938 L 74.910156 38.628906 L 70.746094 38.628906 Z M 70.746094 29.835938 " fill-opacity="1" fill-rule="nonzero"/><path fill="#ffffff" d="M 87.195312 18.460938 C 87.195312 16.324219 87.703125 14.679688 88.71875 13.523438 C 89.742188 12.378906 91.28125 11.796875 93.328125 11.796875 C 95.371094 11.796875 96.902344 12.378906 97.917969 13.523438 C 98.945312 14.679688 99.460938 16.324219 99.460938 18.460938 L 99.460938 19.496094 L 95.523438 19.496094 L 95.523438 18.195312 C 95.523438 17.238281 95.339844 16.5625 94.972656 16.164062 C 94.609375 15.773438 94.089844 15.578125 93.429688 15.578125 C 92.78125 15.578125 92.273438 15.773438 91.90625 16.164062 C 91.539062 16.5625 91.359375 17.238281 91.359375 18.195312 C 91.359375 19.105469 91.550781 19.914062 91.945312 20.613281 C 92.351562 21.304688 92.859375 21.964844 93.46875 22.585938 C 94.078125 23.195312 94.730469 23.8125 95.421875 24.433594 C 96.121094 25.058594 96.769531 25.734375 97.371094 26.464844 C 97.980469 27.195312 98.488281 28.027344 98.894531 28.960938 C 99.300781 29.898438 99.503906 31.003906 99.503906 32.273438 C 99.503906 34.414062 98.976562 36.0625 97.917969 37.207031 C 96.871094 38.363281 95.328125 38.933594 93.289062 38.933594 C 91.242188 38.933594 89.691406 38.363281 88.636719 37.207031 C 87.589844 36.0625 87.070312 34.414062 87.070312 32.273438 L 87.070312 30.445312 L 91.011719 30.445312 L 91.011719 32.535156 C 91.011719 33.488281 91.207031 34.152344 91.601562 34.527344 C 91.992188 34.910156 92.515625 35.097656 93.164062 35.097656 C 93.824219 35.097656 94.355469 34.910156 94.75 34.527344 C 95.140625 34.152344 95.339844 33.488281 95.339844 32.535156 C 95.339844 31.617188 95.136719 30.808594 94.730469 30.121094 C 94.324219 29.429688 93.816406 28.773438 93.207031 28.148438 C 92.597656 27.53125 91.945312 26.910156 91.257812 26.300781 C 90.566406 25.683594 89.914062 25 89.304688 24.269531 C 88.695312 23.539062 88.1875 22.707031 87.78125 21.773438 C 87.386719 20.835938 87.195312 19.734375 87.195312 18.460938 Z M 87.195312 18.460938 " fill-opacity="1" fill-rule="nonzero"/><path fill="#ffffff" d="M 105.710938 32.535156 C 105.710938 33.488281 105.902344 34.15625 106.300781 34.546875 C 106.691406 34.945312 107.214844 35.136719 107.863281 35.136719 C 108.523438 35.136719 109.050781 34.945312 109.449219 34.546875 C 109.839844 34.15625 110.039062 33.488281 110.039062 32.535156 L 110.039062 18.195312 C 110.039062 17.238281 109.839844 16.5625 109.449219 16.164062 C 109.050781 15.773438 108.523438 15.578125 107.863281 15.578125 C 107.214844 15.578125 106.691406 15.773438 106.300781 16.164062 C 105.902344 16.5625 105.710938 17.238281 105.710938 18.195312 Z M 101.546875 18.460938 C 101.546875 16.324219 102.085938 14.679688 103.171875 13.523438 C 104.253906 12.378906 105.816406 11.796875 107.863281 11.796875 C 109.921875 11.796875 111.488281 12.378906 112.578125 13.523438 C 113.65625 14.679688 114.203125 16.324219 114.203125 18.460938 L 114.203125 32.273438 C 114.203125 34.414062 113.65625 36.0625 112.578125 37.207031 C 111.488281 38.363281 109.921875 38.933594 107.863281 38.933594 C 105.816406 38.933594 104.253906 38.363281 103.171875 37.207031 C 102.085938 36.0625 101.546875 34.414062 101.546875 32.273438 Z M 101.546875 18.460938 " fill-opacity="1" fill-rule="nonzero"/><path fill="#ffffff" d="M 116.894531 12.101562 L 121.058594 12.101562 L 121.058594 34.832031 L 127.925781 34.832031 L 127.925781 38.628906 L 116.894531 38.628906 Z M 116.894531 12.101562 " fill-opacity="1" fill-rule="nonzero"/><path fill="#ffffff" d="M 133.796875 12.101562 L 133.796875 32.558594 C 133.796875 33.523438 133.984375 34.191406 134.367188 34.566406 C 134.757812 34.949219 135.285156 35.136719 135.949219 35.136719 C 136.601562 35.136719 137.117188 34.949219 137.515625 34.566406 C 137.90625 34.191406 138.101562 33.523438 138.101562 32.558594 L 138.101562 12.101562 L 142.042969 12.101562 L 142.042969 32.292969 C 142.042969 34.445312 141.515625 36.101562 140.460938 37.25 C 139.414062 38.402344 137.871094 38.976562 135.828125 38.976562 C 133.78125 38.976562 132.234375 38.402344 131.175781 37.25 C 130.128906 36.101562 129.613281 34.445312 129.613281 32.292969 L 129.613281 12.101562 Z M 133.796875 12.101562 " fill-opacity="1" fill-rule="nonzero"/><path fill="#ffffff" d="M 143.757812 12.101562 L 156.636719 12.101562 L 156.636719 15.882812 L 152.289062 15.882812 L 152.289062 38.628906 L 148.105469 38.628906 L 148.105469 15.882812 L 143.757812 15.882812 Z M 143.757812 12.101562 " fill-opacity="1" fill-rule="nonzero"/><path fill="#ffffff" d="M 158.535156 12.101562 L 162.699219 12.101562 L 162.699219 38.628906 L 158.535156 38.628906 Z M 158.535156 12.101562 " fill-opacity="1" fill-rule="nonzero"/><path fill="#ffffff" d="M 169.550781 32.535156 C 169.550781 33.488281 169.746094 34.15625 170.140625 34.546875 C 170.53125 34.945312 171.054688 35.136719 171.703125 35.136719 C 172.363281 35.136719 172.894531 34.945312 173.289062 34.546875 C 173.679688 34.15625 173.878906 33.488281 173.878906 32.535156 L 173.878906 18.195312 C 173.878906 17.238281 173.679688 16.5625 173.289062 16.164062 C 172.894531 15.773438 172.363281 15.578125 171.703125 15.578125 C 171.054688 15.578125 170.53125 15.773438 170.140625 16.164062 C 169.746094 16.5625 169.550781 17.238281 169.550781 18.195312 Z M 165.386719 18.460938 C 165.386719 16.324219 165.925781 14.679688 167.011719 13.523438 C 168.09375 12.378906 169.660156 11.796875 171.703125 11.796875 C 173.761719 11.796875 175.332031 12.378906 176.417969 13.523438 C 177.5 14.679688 178.042969 16.324219 178.042969 18.460938 L 178.042969 32.273438 C 178.042969 34.414062 177.5 36.0625 176.417969 37.207031 C 175.332031 38.363281 173.761719 38.933594 171.703125 38.933594 C 169.660156 38.933594 168.09375 38.363281 167.011719 37.207031 C 165.925781 36.0625 165.386719 34.414062 165.386719 32.273438 Z M 165.386719 18.460938 " fill-opacity="1" fill-rule="nonzero"/><path fill="#ffffff" d="M 184.453125 19.414062 L 184.453125 38.628906 L 180.695312 38.628906 L 180.695312 12.101562 L 185.917969 12.101562 L 190.203125 27.988281 L 190.203125 12.101562 L 193.917969 12.101562 L 193.917969 38.628906 L 189.632812 38.628906 Z M 184.453125 19.414062 " fill-opacity="1" fill-rule="nonzero"/><g fill="#ffffff" fill-opacity="1"><g transform="translate(194.8336, 37.789185)"><g><path d="M 0.984375 -19.984375 C 0.984375 -22.117188 1.488281 -23.753906 2.5 -24.890625 C 3.507812 -26.035156 5.03125 -26.609375 7.0625 -26.609375 C 9.09375 -26.609375 10.613281 -26.035156 11.625 -24.890625 C 12.644531 -23.753906 13.15625 -22.117188 13.15625 -19.984375 L 13.15625 -18.984375 L 9.25 -18.984375 L 9.25 -20.25 C 9.25 -21.207031 9.066406 -21.878906 8.703125 -22.265625 C 8.335938 -22.648438 7.828125 -22.84375 7.171875 -22.84375 C 6.523438 -22.84375 6.019531 -22.648438 5.65625 -22.265625 C 5.289062 -21.878906 5.109375 -21.207031 5.109375 -20.25 C 5.109375 -19.351562 5.304688 -18.554688 5.703125 -17.859375 C 6.109375 -17.171875 6.609375 -16.519531 7.203125 -15.90625 C 7.804688 -15.300781 8.453125 -14.691406 9.140625 -14.078125 C 9.835938 -13.460938 10.484375 -12.789062 11.078125 -12.0625 C 11.679688 -11.332031 12.179688 -10.503906 12.578125 -9.578125 C 12.984375 -8.648438 13.1875 -7.5625 13.1875 -6.3125 C 13.1875 -4.1875 12.664062 -2.550781 11.625 -1.40625 C 10.59375 -0.269531 9.0625 0.296875 7.03125 0.296875 C 5 0.296875 3.460938 -0.269531 2.421875 -1.40625 C 1.378906 -2.550781 0.859375 -4.1875 0.859375 -6.3125 L 0.859375 -8.109375 L 4.765625 -8.109375 L 4.765625 -6.046875 C 4.765625 -5.097656 4.957031 -4.4375 5.34375 -4.0625 C 5.738281 -3.6875 6.265625 -3.5 6.921875 -3.5 C 7.566406 -3.5 8.082031 -3.6875 8.46875 -4.0625 C 8.863281 -4.4375 9.0625 -5.097656 9.0625 -6.046875 C 9.0625 -6.953125 8.859375 -7.75 8.453125 -8.4375 C 8.054688 -9.125 7.554688 -9.773438 6.953125 -10.390625 C 6.347656 -11.003906 5.703125 -11.617188 5.015625 -12.234375 C 4.328125 -12.847656 3.679688 -13.515625 3.078125 -14.234375 C 2.472656 -14.960938 1.972656 -15.789062 1.578125 -16.71875 C 1.179688 -17.644531 0.984375 -18.734375 0.984375 -19.984375 Z M 0.984375 -19.984375 "/></g></g></g><g fill="#ffffff" fill-opacity="1"><g transform="translate(21.816927, 56.47147)"><g><path d="M -0.203125 0 L -0.171875 -0.140625 L 0.15625 -0.234375 C 0.601562 -0.359375 0.867188 -0.640625 0.953125 -1.078125 L 2.3125 -8.390625 L 2.265625 -8.546875 C 2.253906 -8.898438 2.097656 -9.175781 1.796875 -9.375 L 1.703125 -9.453125 L 1.734375 -9.59375 L 4.203125 -9.59375 L 6.0625 -2.421875 L 10.359375 -9.59375 L 12.921875 -9.59375 L 12.890625 -9.453125 L 12.59375 -9.328125 C 12.25 -9.179688 12.039062 -8.910156 11.96875 -8.515625 L 11.265625 -4.53125 C 11.148438 -3.945312 11.039062 -3.359375 10.9375 -2.765625 C 10.832031 -2.171875 10.734375 -1.578125 10.640625 -0.984375 C 10.566406 -0.578125 10.734375 -0.3125 11.140625 -0.1875 L 11.265625 -0.140625 L 11.234375 0 L 7.75 0 L 7.78125 -0.140625 L 7.921875 -0.1875 C 8.328125 -0.3125 8.566406 -0.582031 8.640625 -1 L 9.921875 -7.96875 L 5.171875 0 L 4.625 0 L 2.59375 -7.9375 L 1.34375 -1.109375 C 1.25 -0.660156 1.421875 -0.363281 1.859375 -0.21875 L 2.125 -0.140625 L 2.09375 0 Z M -0.203125 0 "/></g></g></g><g fill="#ffffff" fill-opacity="1"><g transform="translate(34.067039, 56.47147)"><g><path d="M 3.4375 0.21875 C 2.925781 0.21875 2.460938 0.117188 2.046875 -0.078125 C 1.628906 -0.273438 1.300781 -0.570312 1.0625 -0.96875 C 0.820312 -1.375 0.703125 -1.890625 0.703125 -2.515625 C 0.703125 -3.140625 0.804688 -3.734375 1.015625 -4.296875 C 1.222656 -4.859375 1.515625 -5.359375 1.890625 -5.796875 C 2.265625 -6.234375 2.703125 -6.578125 3.203125 -6.828125 C 3.710938 -7.085938 4.265625 -7.21875 4.859375 -7.21875 C 5.367188 -7.21875 5.828125 -7.117188 6.234375 -6.921875 C 6.640625 -6.722656 6.957031 -6.421875 7.1875 -6.015625 C 7.425781 -5.617188 7.546875 -5.113281 7.546875 -4.5 C 7.546875 -3.882812 7.441406 -3.289062 7.234375 -2.71875 C 7.023438 -2.15625 6.734375 -1.648438 6.359375 -1.203125 C 5.984375 -0.765625 5.546875 -0.414062 5.046875 -0.15625 C 4.554688 0.09375 4.019531 0.21875 3.4375 0.21875 Z M 3.609375 -0.078125 C 3.910156 -0.078125 4.179688 -0.210938 4.421875 -0.484375 C 4.671875 -0.765625 4.890625 -1.132812 5.078125 -1.59375 C 5.265625 -2.050781 5.40625 -2.554688 5.5 -3.109375 C 5.59375 -3.671875 5.640625 -4.226562 5.640625 -4.78125 C 5.640625 -5.59375 5.554688 -6.148438 5.390625 -6.453125 C 5.234375 -6.765625 5.019531 -6.921875 4.75 -6.921875 C 4.445312 -6.921875 4.160156 -6.785156 3.890625 -6.515625 C 3.628906 -6.242188 3.398438 -5.878906 3.203125 -5.421875 C 3.015625 -4.972656 2.867188 -4.46875 2.765625 -3.90625 C 2.660156 -3.351562 2.609375 -2.800781 2.609375 -2.25 C 2.609375 -1.425781 2.703125 -0.859375 2.890625 -0.546875 C 3.085938 -0.234375 3.328125 -0.078125 3.609375 -0.078125 Z M 3.609375 -0.078125 "/></g></g></g><g fill="#ffffff" fill-opacity="1"><g transform="translate(41.667051, 56.47147)"><g><path d="M 0.65625 0.109375 L 0.53125 0 L 1.640625 -5.359375 C 1.734375 -5.734375 1.597656 -6.003906 1.234375 -6.171875 L 0.984375 -6.28125 L 1 -6.4375 L 3.703125 -7.234375 L 3.84375 -7.109375 L 3.5 -5.359375 C 4.007812 -5.929688 4.523438 -6.382812 5.046875 -6.71875 C 5.566406 -7.050781 6.0625 -7.21875 6.53125 -7.21875 C 6.84375 -7.21875 7.097656 -7.117188 7.296875 -6.921875 C 7.503906 -6.734375 7.609375 -6.441406 7.609375 -6.046875 C 7.609375 -5.847656 7.585938 -5.640625 7.546875 -5.421875 C 7.503906 -5.203125 7.457031 -4.976562 7.40625 -4.75 L 6.640625 -1.640625 C 6.597656 -1.484375 6.566406 -1.351562 6.546875 -1.25 C 6.523438 -1.15625 6.515625 -1.066406 6.515625 -0.984375 C 6.515625 -0.785156 6.597656 -0.6875 6.765625 -0.6875 C 7.035156 -0.6875 7.378906 -0.90625 7.796875 -1.34375 L 7.9375 -1.1875 C 7.695312 -0.832031 7.378906 -0.507812 6.984375 -0.21875 C 6.585938 0.0703125 6.144531 0.21875 5.65625 0.21875 C 5.332031 0.21875 5.082031 0.144531 4.90625 0 C 4.738281 -0.15625 4.65625 -0.367188 4.65625 -0.640625 C 4.65625 -0.847656 4.675781 -1.054688 4.71875 -1.265625 C 4.769531 -1.484375 4.828125 -1.710938 4.890625 -1.953125 L 5.453125 -4.21875 C 5.535156 -4.53125 5.597656 -4.804688 5.640625 -5.046875 C 5.691406 -5.285156 5.71875 -5.507812 5.71875 -5.71875 C 5.71875 -5.894531 5.675781 -6.019531 5.59375 -6.09375 C 5.519531 -6.164062 5.414062 -6.203125 5.28125 -6.203125 C 5.050781 -6.203125 4.773438 -6.097656 4.453125 -5.890625 C 4.140625 -5.691406 3.796875 -5.375 3.421875 -4.9375 L 3.015625 -3.09375 C 2.898438 -2.582031 2.796875 -2.066406 2.703125 -1.546875 C 2.609375 -1.035156 2.515625 -0.519531 2.421875 0 Z M 0.65625 0.109375 "/></g></g></g><g fill="#ffffff" fill-opacity="1"><g transform="translate(49.703006, 56.47147)"><g><path d="M 3.203125 0.21875 C 2.472656 0.21875 1.878906 -0.015625 1.421875 -0.484375 C 0.960938 -0.960938 0.734375 -1.640625 0.734375 -2.515625 C 0.734375 -3.140625 0.835938 -3.734375 1.046875 -4.296875 C 1.265625 -4.859375 1.566406 -5.359375 1.953125 -5.796875 C 2.335938 -6.234375 2.78125 -6.578125 3.28125 -6.828125 C 3.789062 -7.085938 4.34375 -7.21875 4.9375 -7.21875 C 5.539062 -7.21875 6.003906 -7.078125 6.328125 -6.796875 C 6.660156 -6.523438 6.828125 -6.160156 6.828125 -5.703125 C 6.828125 -5.328125 6.648438 -4.953125 6.296875 -4.578125 C 5.941406 -4.210938 5.441406 -3.878906 4.796875 -3.578125 C 4.160156 -3.285156 3.410156 -3.0625 2.546875 -2.90625 C 2.554688 -2.238281 2.703125 -1.75 2.984375 -1.4375 C 3.265625 -1.125 3.648438 -0.96875 4.140625 -0.96875 C 4.554688 -0.96875 4.9375 -1.082031 5.28125 -1.3125 C 5.632812 -1.539062 5.9375 -1.8125 6.1875 -2.125 L 6.328125 -2.015625 C 6.128906 -1.640625 5.878906 -1.28125 5.578125 -0.9375 C 5.273438 -0.601562 4.921875 -0.328125 4.515625 -0.109375 C 4.117188 0.109375 3.679688 0.21875 3.203125 0.21875 Z M 4.828125 -6.828125 C 4.609375 -6.828125 4.367188 -6.726562 4.109375 -6.53125 C 3.847656 -6.332031 3.601562 -6.066406 3.375 -5.734375 C 3.15625 -5.398438 2.96875 -5.015625 2.8125 -4.578125 C 2.664062 -4.148438 2.578125 -3.695312 2.546875 -3.21875 C 3.609375 -3.507812 4.363281 -3.890625 4.8125 -4.359375 C 5.269531 -4.835938 5.5 -5.378906 5.5 -5.984375 C 5.5 -6.273438 5.4375 -6.488281 5.3125 -6.625 C 5.1875 -6.757812 5.023438 -6.828125 4.828125 -6.828125 Z M 4.828125 -6.828125 "/></g></g></g><g fill="#ffffff" fill-opacity="1"><g transform="translate(56.329402, 56.47147)"><g><path d="M 2.09375 0.21875 C 1.789062 0.21875 1.539062 0.140625 1.34375 -0.015625 C 1.144531 -0.179688 1.046875 -0.421875 1.046875 -0.734375 C 1.046875 -0.921875 1.0625 -1.128906 1.09375 -1.359375 C 1.132812 -1.585938 1.179688 -1.832031 1.234375 -2.09375 L 2.234375 -6.6875 L 1.03125 -6.6875 L 1.078125 -6.859375 L 1.59375 -6.921875 C 1.863281 -6.953125 2.101562 -7.019531 2.3125 -7.125 C 2.519531 -7.226562 2.710938 -7.378906 2.890625 -7.578125 L 4.296875 -8.984375 L 4.515625 -8.984375 L 4.109375 -7 L 5.6875 -7 L 5.609375 -6.6875 L 4.03125 -6.6875 L 3.03125 -1.84375 C 2.988281 -1.664062 2.957031 -1.507812 2.9375 -1.375 C 2.914062 -1.238281 2.90625 -1.128906 2.90625 -1.046875 C 2.90625 -0.953125 2.929688 -0.875 2.984375 -0.8125 C 3.046875 -0.757812 3.113281 -0.734375 3.1875 -0.734375 C 3.320312 -0.734375 3.46875 -0.785156 3.625 -0.890625 C 3.78125 -1.003906 3.972656 -1.171875 4.203125 -1.390625 L 4.375 -1.25 C 4.132812 -0.894531 3.816406 -0.5625 3.421875 -0.25 C 3.035156 0.0625 2.59375 0.21875 2.09375 0.21875 Z M 2.09375 0.21875 "/></g></g></g><g fill="#ffffff" fill-opacity="1"><g transform="translate(61.299203, 56.47147)"><g><path d="M 3.15625 -8.03125 C 2.882812 -8.03125 2.648438 -8.117188 2.453125 -8.296875 C 2.253906 -8.472656 2.15625 -8.710938 2.15625 -9.015625 C 2.15625 -9.359375 2.269531 -9.640625 2.5 -9.859375 C 2.738281 -10.078125 3.007812 -10.1875 3.3125 -10.1875 C 3.601562 -10.1875 3.84375 -10.09375 4.03125 -9.90625 C 4.21875 -9.71875 4.3125 -9.476562 4.3125 -9.1875 C 4.3125 -8.863281 4.191406 -8.585938 3.953125 -8.359375 C 3.722656 -8.140625 3.457031 -8.03125 3.15625 -8.03125 Z M 1.796875 0.21875 C 1.503906 0.21875 1.257812 0.140625 1.0625 -0.015625 C 0.863281 -0.171875 0.765625 -0.398438 0.765625 -0.703125 C 0.765625 -0.867188 0.785156 -1.070312 0.828125 -1.3125 C 0.867188 -1.5625 0.910156 -1.804688 0.953125 -2.046875 L 1.640625 -5.328125 C 1.734375 -5.722656 1.59375 -6.003906 1.21875 -6.171875 L 0.984375 -6.28125 L 1 -6.4375 L 3.734375 -7.234375 L 3.890625 -7.09375 L 2.75 -1.828125 C 2.707031 -1.660156 2.675781 -1.515625 2.65625 -1.390625 C 2.644531 -1.265625 2.640625 -1.144531 2.640625 -1.03125 C 2.640625 -0.820312 2.734375 -0.71875 2.921875 -0.71875 C 3.066406 -0.71875 3.210938 -0.757812 3.359375 -0.84375 C 3.503906 -0.9375 3.6875 -1.09375 3.90625 -1.3125 L 4.046875 -1.171875 C 3.804688 -0.816406 3.5 -0.492188 3.125 -0.203125 C 2.75 0.078125 2.304688 0.21875 1.796875 0.21875 Z M 1.796875 0.21875 "/></g></g></g><g fill="#ffffff" fill-opacity="1"><g transform="translate(65.440699, 56.47147)"><g><path d="M 0.453125 0.265625 L 0.125 -0.0625 L 4.921875 -5.03125 C 4.554688 -5.101562 4.164062 -5.175781 3.75 -5.25 C 3.34375 -5.332031 2.898438 -5.414062 2.421875 -5.5 C 1.960938 -5.582031 1.609375 -5.410156 1.359375 -4.984375 L 1.265625 -4.828125 L 1.0625 -4.875 L 1.515625 -7.234375 C 2.296875 -7.085938 3.101562 -6.9375 3.9375 -6.78125 C 4.78125 -6.625 5.539062 -6.5 6.21875 -6.40625 L 6.984375 -7.1875 L 7.328125 -6.84375 L 2.671875 -2.03125 C 3.015625 -1.695312 3.414062 -1.429688 3.875 -1.234375 C 4.332031 -1.035156 4.796875 -0.9375 5.265625 -0.9375 C 5.429688 -0.9375 5.582031 -0.941406 5.71875 -0.953125 C 5.851562 -0.972656 5.96875 -1.003906 6.0625 -1.046875 C 6.175781 -1.097656 6.234375 -1.175781 6.234375 -1.28125 C 6.242188 -1.382812 6.195312 -1.472656 6.09375 -1.546875 C 5.789062 -1.742188 5.59375 -1.929688 5.5 -2.109375 C 5.414062 -2.285156 5.375 -2.429688 5.375 -2.546875 C 5.375 -2.773438 5.453125 -2.96875 5.609375 -3.125 C 5.773438 -3.289062 5.976562 -3.375 6.21875 -3.375 C 6.46875 -3.375 6.671875 -3.285156 6.828125 -3.109375 C 6.984375 -2.941406 7.0625 -2.691406 7.0625 -2.359375 C 7.0625 -1.859375 6.945312 -1.398438 6.71875 -0.984375 C 6.488281 -0.566406 6.171875 -0.234375 5.765625 0.015625 C 5.359375 0.265625 4.882812 0.390625 4.34375 0.390625 C 3.9375 0.390625 3.53125 0.285156 3.125 0.078125 C 2.726562 -0.117188 2.398438 -0.359375 2.140625 -0.640625 L 1.75 -1.0625 Z M 0.453125 0.265625 "/></g></g></g><g fill="#ffffff" fill-opacity="1"><g transform="translate(72.546634, 56.47147)"><g><path d="M 3.15625 -8.03125 C 2.882812 -8.03125 2.648438 -8.117188 2.453125 -8.296875 C 2.253906 -8.472656 2.15625 -8.710938 2.15625 -9.015625 C 2.15625 -9.359375 2.269531 -9.640625 2.5 -9.859375 C 2.738281 -10.078125 3.007812 -10.1875 3.3125 -10.1875 C 3.601562 -10.1875 3.84375 -10.09375 4.03125 -9.90625 C 4.21875 -9.71875 4.3125 -9.476562 4.3125 -9.1875 C 4.3125 -8.863281 4.191406 -8.585938 3.953125 -8.359375 C 3.722656 -8.140625 3.457031 -8.03125 3.15625 -8.03125 Z M 1.796875 0.21875 C 1.503906 0.21875 1.257812 0.140625 1.0625 -0.015625 C 0.863281 -0.171875 0.765625 -0.398438 0.765625 -0.703125 C 0.765625 -0.867188 0.785156 -1.070312 0.828125 -1.3125 C 0.867188 -1.5625 0.910156 -1.804688 0.953125 -2.046875 L 1.640625 -5.328125 C 1.734375 -5.722656 1.59375 -6.003906 1.21875 -6.171875 L 0.984375 -6.28125 L 1 -6.4375 L 3.734375 -7.234375 L 3.890625 -7.09375 L 2.75 -1.828125 C 2.707031 -1.660156 2.675781 -1.515625 2.65625 -1.390625 C 2.644531 -1.265625 2.640625 -1.144531 2.640625 -1.03125 C 2.640625 -0.820312 2.734375 -0.71875 2.921875 -0.71875 C 3.066406 -0.71875 3.210938 -0.757812 3.359375 -0.84375 C 3.503906 -0.9375 3.6875 -1.09375 3.90625 -1.3125 L 4.046875 -1.171875 C 3.804688 -0.816406 3.5 -0.492188 3.125 -0.203125 C 2.75 0.078125 2.304688 0.21875 1.796875 0.21875 Z M 1.796875 0.21875 "/></g></g></g><g fill="#ffffff" fill-opacity="1"><g transform="translate(76.68813, 56.47147)"><g><path d="M 0.65625 0.109375 L 0.53125 0 L 1.640625 -5.359375 C 1.734375 -5.734375 1.597656 -6.003906 1.234375 -6.171875 L 0.984375 -6.28125 L 1 -6.4375 L 3.703125 -7.234375 L 3.84375 -7.109375 L 3.5 -5.359375 C 4.007812 -5.929688 4.523438 -6.382812 5.046875 -6.71875 C 5.566406 -7.050781 6.0625 -7.21875 6.53125 -7.21875 C 6.84375 -7.21875 7.097656 -7.117188 7.296875 -6.921875 C 7.503906 -6.734375 7.609375 -6.441406 7.609375 -6.046875 C 7.609375 -5.847656 7.585938 -5.640625 7.546875 -5.421875 C 7.503906 -5.203125 7.457031 -4.976562 7.40625 -4.75 L 6.640625 -1.640625 C 6.597656 -1.484375 6.566406 -1.351562 6.546875 -1.25 C 6.523438 -1.15625 6.515625 -1.066406 6.515625 -0.984375 C 6.515625 -0.785156 6.597656 -0.6875 6.765625 -0.6875 C 7.035156 -0.6875 7.378906 -0.90625 7.796875 -1.34375 L 7.9375 -1.1875 C 7.695312 -0.832031 7.378906 -0.507812 6.984375 -0.21875 C 6.585938 0.0703125 6.144531 0.21875 5.65625 0.21875 C 5.332031 0.21875 5.082031 0.144531 4.90625 0 C 4.738281 -0.15625 4.65625 -0.367188 4.65625 -0.640625 C 4.65625 -0.847656 4.675781 -1.054688 4.71875 -1.265625 C 4.769531 -1.484375 4.828125 -1.710938 4.890625 -1.953125 L 5.453125 -4.21875 C 5.535156 -4.53125 5.597656 -4.804688 5.640625 -5.046875 C 5.691406 -5.285156 5.71875 -5.507812 5.71875 -5.71875 C 5.71875 -5.894531 5.675781 -6.019531 5.59375 -6.09375 C 5.519531 -6.164062 5.414062 -6.203125 5.28125 -6.203125 C 5.050781 -6.203125 4.773438 -6.097656 4.453125 -5.890625 C 4.140625 -5.691406 3.796875 -5.375 3.421875 -4.9375 L 3.015625 -3.09375 C 2.898438 -2.582031 2.796875 -2.066406 2.703125 -1.546875 C 2.609375 -1.035156 2.515625 -0.519531 2.421875 0 Z M 0.65625 0.109375 "/></g></g></g><g fill="#ffffff" fill-opacity="1"><g transform="translate(84.724085, 56.47147)"><g><path d="M 2.21875 3.4375 C 1.40625 3.4375 0.765625 3.304688 0.296875 3.046875 C -0.171875 2.796875 -0.40625 2.429688 -0.40625 1.953125 C -0.40625 1.648438 -0.296875 1.375 -0.078125 1.125 C 0.128906 0.875 0.390625 0.65625 0.703125 0.46875 C 1.015625 0.289062 1.335938 0.148438 1.671875 0.046875 C 1.335938 -0.046875 1.078125 -0.164062 0.890625 -0.3125 C 0.710938 -0.457031 0.625 -0.648438 0.625 -0.890625 C 0.625 -1.117188 0.757812 -1.390625 1.03125 -1.703125 C 1.3125 -2.023438 1.640625 -2.332031 2.015625 -2.625 C 1.734375 -2.8125 1.519531 -3.050781 1.375 -3.34375 C 1.226562 -3.632812 1.15625 -3.941406 1.15625 -4.265625 C 1.15625 -4.796875 1.289062 -5.285156 1.5625 -5.734375 C 1.84375 -6.179688 2.210938 -6.539062 2.671875 -6.8125 C 3.128906 -7.082031 3.632812 -7.21875 4.1875 -7.21875 C 4.5625 -7.21875 4.90625 -7.164062 5.21875 -7.0625 C 5.53125 -6.957031 5.796875 -6.804688 6.015625 -6.609375 C 6.316406 -6.648438 6.609375 -6.722656 6.890625 -6.828125 C 7.179688 -6.929688 7.457031 -7.0625 7.71875 -7.21875 L 7.828125 -7.109375 L 7.6875 -6.359375 L 6.21875 -6.359375 C 6.457031 -6.046875 6.578125 -5.671875 6.578125 -5.234375 C 6.578125 -4.640625 6.445312 -4.113281 6.1875 -3.65625 C 5.925781 -3.207031 5.566406 -2.851562 5.109375 -2.59375 C 4.660156 -2.34375 4.128906 -2.21875 3.515625 -2.21875 C 3.054688 -2.21875 2.644531 -2.300781 2.28125 -2.46875 L 2.0625 -2.109375 C 1.988281 -1.992188 1.960938 -1.875 1.984375 -1.75 C 2.015625 -1.632812 2.117188 -1.566406 2.296875 -1.546875 L 4.6875 -1.0625 C 5.488281 -0.894531 6.050781 -0.679688 6.375 -0.421875 C 6.695312 -0.160156 6.859375 0.195312 6.859375 0.65625 C 6.859375 1.195312 6.65625 1.675781 6.25 2.09375 C 5.851562 2.507812 5.304688 2.835938 4.609375 3.078125 C 3.910156 3.316406 3.113281 3.4375 2.21875 3.4375 Z M 3.78125 -2.5 C 4.101562 -2.5 4.378906 -2.679688 4.609375 -3.046875 C 4.835938 -3.421875 4.953125 -4.0625 4.953125 -4.96875 C 4.953125 -5.59375 4.867188 -6.070312 4.703125 -6.40625 C 4.535156 -6.75 4.328125 -6.921875 4.078125 -6.921875 C 3.679688 -6.910156 3.378906 -6.6875 3.171875 -6.25 C 2.972656 -5.8125 2.875 -5.222656 2.875 -4.484375 C 2.875 -3.953125 2.941406 -3.484375 3.078125 -3.078125 C 3.222656 -2.679688 3.457031 -2.488281 3.78125 -2.5 Z M 1.0625 1.4375 C 1.0625 1.925781 1.234375 2.304688 1.578125 2.578125 C 1.929688 2.859375 2.40625 3 3 3 C 3.738281 3 4.320312 2.867188 4.75 2.609375 C 5.175781 2.359375 5.390625 2 5.390625 1.53125 C 5.390625 1.25 5.265625 1.023438 5.015625 0.859375 C 4.773438 0.691406 4.34375 0.550781 3.71875 0.4375 L 2.015625 0.109375 C 1.972656 0.109375 1.929688 0.101562 1.890625 0.09375 C 1.640625 0.238281 1.4375 0.425781 1.28125 0.65625 C 1.132812 0.882812 1.0625 1.144531 1.0625 1.4375 Z M 1.0625 1.4375 "/></g></g></g><g fill="#ffffff" fill-opacity="1"><g transform="translate(92.309558, 56.47147)"><g/></g></g><g fill="#ffffff" fill-opacity="1"><g transform="translate(95.521034, 56.47147)"><g><path d="M 0.03125 0 L 0.0625 -0.140625 L 0.421875 -0.265625 C 0.710938 -0.390625 0.882812 -0.597656 0.9375 -0.890625 L 1.734375 -5.09375 C 1.828125 -5.613281 1.929688 -6.195312 2.046875 -6.84375 C 2.160156 -7.488281 2.269531 -8.097656 2.375 -8.671875 C 2.425781 -9.003906 2.289062 -9.238281 1.96875 -9.375 L 1.75 -9.453125 L 1.78125 -9.59375 L 5.359375 -9.59375 L 5.328125 -9.453125 L 4.953125 -9.34375 C 4.617188 -9.226562 4.421875 -9.003906 4.359375 -8.671875 L 3.703125 -5.09375 L 7.3125 -5.09375 C 7.375 -5.414062 7.441406 -5.78125 7.515625 -6.1875 C 7.585938 -6.59375 7.660156 -7.007812 7.734375 -7.4375 C 7.804688 -7.863281 7.867188 -8.257812 7.921875 -8.625 C 7.984375 -8.988281 7.84375 -9.238281 7.5 -9.375 L 7.28125 -9.453125 L 7.3125 -9.59375 L 10.890625 -9.59375 L 10.859375 -9.453125 L 10.515625 -9.34375 C 10.191406 -9.226562 10 -9.003906 9.9375 -8.671875 L 9.15625 -4.53125 C 9.050781 -3.976562 8.945312 -3.40625 8.84375 -2.8125 C 8.738281 -2.21875 8.628906 -1.582031 8.515625 -0.90625 C 8.460938 -0.59375 8.578125 -0.382812 8.859375 -0.28125 L 9.1875 -0.140625 L 9.171875 0 L 5.546875 0 L 5.578125 -0.140625 L 6 -0.296875 C 6.28125 -0.390625 6.445312 -0.582031 6.5 -0.875 L 7.25 -4.796875 L 3.640625 -4.796875 C 3.535156 -4.242188 3.421875 -3.628906 3.296875 -2.953125 C 3.171875 -2.285156 3.050781 -1.597656 2.9375 -0.890625 C 2.882812 -0.585938 2.992188 -0.378906 3.265625 -0.265625 L 3.546875 -0.140625 L 3.515625 0 Z M 0.03125 0 "/></g></g></g><g fill="#ffffff" fill-opacity="1"><g transform="translate(105.707662, 56.47147)"><g><path d="M 3.15625 -8.03125 C 2.882812 -8.03125 2.648438 -8.117188 2.453125 -8.296875 C 2.253906 -8.472656 2.15625 -8.710938 2.15625 -9.015625 C 2.15625 -9.359375 2.269531 -9.640625 2.5 -9.859375 C 2.738281 -10.078125 3.007812 -10.1875 3.3125 -10.1875 C 3.601562 -10.1875 3.84375 -10.09375 4.03125 -9.90625 C 4.21875 -9.71875 4.3125 -9.476562 4.3125 -9.1875 C 4.3125 -8.863281 4.191406 -8.585938 3.953125 -8.359375 C 3.722656 -8.140625 3.457031 -8.03125 3.15625 -8.03125 Z M 1.796875 0.21875 C 1.503906 0.21875 1.257812 0.140625 1.0625 -0.015625 C 0.863281 -0.171875 0.765625 -0.398438 0.765625 -0.703125 C 0.765625 -0.867188 0.785156 -1.070312 0.828125 -1.3125 C 0.867188 -1.5625 0.910156 -1.804688 0.953125 -2.046875 L 1.640625 -5.328125 C 1.734375 -5.722656 1.59375 -6.003906 1.21875 -6.171875 L 0.984375 -6.28125 L 1 -6.4375 L 3.734375 -7.234375 L 3.890625 -7.09375 L 2.75 -1.828125 C 2.707031 -1.660156 2.675781 -1.515625 2.65625 -1.390625 C 2.644531 -1.265625 2.640625 -1.144531 2.640625 -1.03125 C 2.640625 -0.820312 2.734375 -0.71875 2.921875 -0.71875 C 3.066406 -0.71875 3.210938 -0.757812 3.359375 -0.84375 C 3.503906 -0.9375 3.6875 -1.09375 3.90625 -1.3125 L 4.046875 -1.171875 C 3.804688 -0.816406 3.5 -0.492188 3.125 -0.203125 C 2.75 0.078125 2.304688 0.21875 1.796875 0.21875 Z M 1.796875 0.21875 "/></g></g></g><g fill="#ffffff" fill-opacity="1"><g transform="translate(109.849159, 56.47147)"><g><path d="M 2.15625 0.21875 C 1.769531 0.21875 1.425781 0.0664062 1.125 -0.234375 C 0.832031 -0.535156 0.6875 -1.054688 0.6875 -1.796875 C 0.6875 -2.304688 0.78125 -2.816406 0.96875 -3.328125 C 1.164062 -3.847656 1.425781 -4.335938 1.75 -4.796875 C 2.070312 -5.253906 2.441406 -5.664062 2.859375 -6.03125 C 3.273438 -6.40625 3.703125 -6.695312 4.140625 -6.90625 C 4.585938 -7.113281 5.023438 -7.21875 5.453125 -7.21875 C 5.648438 -7.21875 5.835938 -7.1875 6.015625 -7.125 L 6.21875 -8.21875 C 6.3125 -8.65625 6.15625 -8.953125 5.75 -9.109375 L 5.421875 -9.234375 L 5.453125 -9.375 L 8.28125 -10.203125 L 8.375 -10.09375 L 6.59375 -1.625 C 6.5625 -1.46875 6.535156 -1.335938 6.515625 -1.234375 C 6.503906 -1.140625 6.5 -1.046875 6.5 -0.953125 C 6.5 -0.742188 6.582031 -0.640625 6.75 -0.640625 C 6.863281 -0.640625 7.019531 -0.695312 7.21875 -0.8125 C 7.414062 -0.9375 7.617188 -1.125 7.828125 -1.375 L 7.984375 -1.21875 C 7.753906 -0.832031 7.4375 -0.492188 7.03125 -0.203125 C 6.632812 0.078125 6.21875 0.21875 5.78125 0.21875 C 5.457031 0.21875 5.203125 0.113281 5.015625 -0.09375 C 4.835938 -0.300781 4.75 -0.570312 4.75 -0.90625 C 4.75 -1.070312 4.757812 -1.265625 4.78125 -1.484375 C 4.382812 -0.984375 3.953125 -0.570312 3.484375 -0.25 C 3.015625 0.0625 2.570312 0.21875 2.15625 0.21875 Z M 2.453125 -2.265625 C 2.453125 -1.785156 2.53125 -1.4375 2.6875 -1.21875 C 2.84375 -1.007812 3.046875 -0.90625 3.296875 -0.90625 C 3.742188 -0.90625 4.257812 -1.242188 4.84375 -1.921875 C 4.851562 -1.972656 4.863281 -2.023438 4.875 -2.078125 L 5.765625 -6.375 C 5.515625 -6.59375 5.226562 -6.703125 4.90625 -6.703125 C 4.65625 -6.703125 4.425781 -6.644531 4.21875 -6.53125 C 4.007812 -6.425781 3.816406 -6.269531 3.640625 -6.0625 C 3.410156 -5.8125 3.207031 -5.472656 3.03125 -5.046875 C 2.851562 -4.628906 2.710938 -4.175781 2.609375 -3.6875 C 2.503906 -3.195312 2.453125 -2.722656 2.453125 -2.265625 Z M 2.453125 -2.265625 "/></g></g></g><g fill="#ffffff" fill-opacity="1"><g transform="translate(117.885114, 56.47147)"><g><path d="M 2.15625 0.21875 C 1.769531 0.21875 1.425781 0.0664062 1.125 -0.234375 C 0.832031 -0.535156 0.6875 -1.054688 0.6875 -1.796875 C 0.6875 -2.304688 0.78125 -2.816406 0.96875 -3.328125 C 1.164062 -3.847656 1.425781 -4.335938 1.75 -4.796875 C 2.070312 -5.253906 2.441406 -5.664062 2.859375 -6.03125 C 3.273438 -6.40625 3.703125 -6.695312 4.140625 -6.90625 C 4.585938 -7.113281 5.023438 -7.21875 5.453125 -7.21875 C 5.648438 -7.21875 5.835938 -7.1875 6.015625 -7.125 L 6.21875 -8.21875 C 6.3125 -8.65625 6.15625 -8.953125 5.75 -9.109375 L 5.421875 -9.234375 L 5.453125 -9.375 L 8.28125 -10.203125 L 8.375 -10.09375 L 6.59375 -1.625 C 6.5625 -1.46875 6.535156 -1.335938 6.515625 -1.234375 C 6.503906 -1.140625 6.5 -1.046875 6.5 -0.953125 C 6.5 -0.742188 6.582031 -0.640625 6.75 -0.640625 C 6.863281 -0.640625 7.019531 -0.695312 7.21875 -0.8125 C 7.414062 -0.9375 7.617188 -1.125 7.828125 -1.375 L 7.984375 -1.21875 C 7.753906 -0.832031 7.4375 -0.492188 7.03125 -0.203125 C 6.632812 0.078125 6.21875 0.21875 5.78125 0.21875 C 5.457031 0.21875 5.203125 0.113281 5.015625 -0.09375 C 4.835938 -0.300781 4.75 -0.570312 4.75 -0.90625 C 4.75 -1.070312 4.757812 -1.265625 4.78125 -1.484375 C 4.382812 -0.984375 3.953125 -0.570312 3.484375 -0.25 C 3.015625 0.0625 2.570312 0.21875 2.15625 0.21875 Z M 2.453125 -2.265625 C 2.453125 -1.785156 2.53125 -1.4375 2.6875 -1.21875 C 2.84375 -1.007812 3.046875 -0.90625 3.296875 -0.90625 C 3.742188 -0.90625 4.257812 -1.242188 4.84375 -1.921875 C 4.851562 -1.972656 4.863281 -2.023438 4.875 -2.078125 L 5.765625 -6.375 C 5.515625 -6.59375 5.226562 -6.703125 4.90625 -6.703125 C 4.65625 -6.703125 4.425781 -6.644531 4.21875 -6.53125 C 4.007812 -6.425781 3.816406 -6.269531 3.640625 -6.0625 C 3.410156 -5.8125 3.207031 -5.472656 3.03125 -5.046875 C 2.851562 -4.628906 2.710938 -4.175781 2.609375 -3.6875 C 2.503906 -3.195312 2.453125 -2.722656 2.453125 -2.265625 Z M 2.453125 -2.265625 "/></g></g></g><g fill="#ffffff" fill-opacity="1"><g transform="translate(125.921069, 56.47147)"><g><path d="M 3.203125 0.21875 C 2.472656 0.21875 1.878906 -0.015625 1.421875 -0.484375 C 0.960938 -0.960938 0.734375 -1.640625 0.734375 -2.515625 C 0.734375 -3.140625 0.835938 -3.734375 1.046875 -4.296875 C 1.265625 -4.859375 1.566406 -5.359375 1.953125 -5.796875 C 2.335938 -6.234375 2.78125 -6.578125 3.28125 -6.828125 C 3.789062 -7.085938 4.34375 -7.21875 4.9375 -7.21875 C 5.539062 -7.21875 6.003906 -7.078125 6.328125 -6.796875 C 6.660156 -6.523438 6.828125 -6.160156 6.828125 -5.703125 C 6.828125 -5.328125 6.648438 -4.953125 6.296875 -4.578125 C 5.941406 -4.210938 5.441406 -3.878906 4.796875 -3.578125 C 4.160156 -3.285156 3.410156 -3.0625 2.546875 -2.90625 C 2.554688 -2.238281 2.703125 -1.75 2.984375 -1.4375 C 3.265625 -1.125 3.648438 -0.96875 4.140625 -0.96875 C 4.554688 -0.96875 4.9375 -1.082031 5.28125 -1.3125 C 5.632812 -1.539062 5.9375 -1.8125 6.1875 -2.125 L 6.328125 -2.015625 C 6.128906 -1.640625 5.878906 -1.28125 5.578125 -0.9375 C 5.273438 -0.601562 4.921875 -0.328125 4.515625 -0.109375 C 4.117188 0.109375 3.679688 0.21875 3.203125 0.21875 Z M 4.828125 -6.828125 C 4.609375 -6.828125 4.367188 -6.726562 4.109375 -6.53125 C 3.847656 -6.332031 3.601562 -6.066406 3.375 -5.734375 C 3.15625 -5.398438 2.96875 -5.015625 2.8125 -4.578125 C 2.664062 -4.148438 2.578125 -3.695312 2.546875 -3.21875 C 3.609375 -3.507812 4.363281 -3.890625 4.8125 -4.359375 C 5.269531 -4.835938 5.5 -5.378906 5.5 -5.984375 C 5.5 -6.273438 5.4375 -6.488281 5.3125 -6.625 C 5.1875 -6.757812 5.023438 -6.828125 4.828125 -6.828125 Z M 4.828125 -6.828125 "/></g></g></g><g fill="#ffffff" fill-opacity="1"><g transform="translate(132.547465, 56.47147)"><g><path d="M 0.65625 0.109375 L 0.53125 0 L 1.640625 -5.359375 C 1.734375 -5.734375 1.597656 -6.003906 1.234375 -6.171875 L 0.984375 -6.28125 L 1 -6.4375 L 3.703125 -7.234375 L 3.84375 -7.109375 L 3.5 -5.359375 C 4.007812 -5.929688 4.523438 -6.382812 5.046875 -6.71875 C 5.566406 -7.050781 6.0625 -7.21875 6.53125 -7.21875 C 6.84375 -7.21875 7.097656 -7.117188 7.296875 -6.921875 C 7.503906 -6.734375 7.609375 -6.441406 7.609375 -6.046875 C 7.609375 -5.847656 7.585938 -5.640625 7.546875 -5.421875 C 7.503906 -5.203125 7.457031 -4.976562 7.40625 -4.75 L 6.640625 -1.640625 C 6.597656 -1.484375 6.566406 -1.351562 6.546875 -1.25 C 6.523438 -1.15625 6.515625 -1.066406 6.515625 -0.984375 C 6.515625 -0.785156 6.597656 -0.6875 6.765625 -0.6875 C 7.035156 -0.6875 7.378906 -0.90625 7.796875 -1.34375 L 7.9375 -1.1875 C 7.695312 -0.832031 7.378906 -0.507812 6.984375 -0.21875 C 6.585938 0.0703125 6.144531 0.21875 5.65625 0.21875 C 5.332031 0.21875 5.082031 0.144531 4.90625 0 C 4.738281 -0.15625 4.65625 -0.367188 4.65625 -0.640625 C 4.65625 -0.847656 4.675781 -1.054688 4.71875 -1.265625 C 4.769531 -1.484375 4.828125 -1.710938 4.890625 -1.953125 L 5.453125 -4.21875 C 5.535156 -4.53125 5.597656 -4.804688 5.640625 -5.046875 C 5.691406 -5.285156 5.71875 -5.507812 5.71875 -5.71875 C 5.71875 -5.894531 5.675781 -6.019531 5.59375 -6.09375 C 5.519531 -6.164062 5.414062 -6.203125 5.28125 -6.203125 C 5.050781 -6.203125 4.773438 -6.097656 4.453125 -5.890625 C 4.140625 -5.691406 3.796875 -5.375 3.421875 -4.9375 L 3.015625 -3.09375 C 2.898438 -2.582031 2.796875 -2.066406 2.703125 -1.546875 C 2.609375 -1.035156 2.515625 -0.519531 2.421875 0 Z M 0.65625 0.109375 "/></g></g></g><g fill="#ffffff" fill-opacity="1"><g transform="translate(140.58342, 56.47147)"><g/></g></g><g fill="#ffffff" fill-opacity="1"><g transform="translate(143.794897, 56.47147)"><g><path d="M 2.640625 0.0625 L 1.796875 -8.671875 C 1.773438 -9.003906 1.601562 -9.238281 1.28125 -9.375 L 1.109375 -9.453125 L 1.140625 -9.59375 L 4.609375 -9.59375 L 4.578125 -9.453125 L 4.265625 -9.34375 C 3.953125 -9.226562 3.804688 -9 3.828125 -8.65625 L 4.265625 -2.203125 L 6.9375 -7.546875 L 6.8125 -8.640625 C 6.769531 -8.984375 6.585938 -9.21875 6.265625 -9.34375 L 5.953125 -9.453125 L 5.984375 -9.59375 L 9.515625 -9.59375 L 9.484375 -9.453125 L 9.09375 -9.3125 C 8.769531 -9.195312 8.632812 -8.96875 8.6875 -8.625 L 9.390625 -2.171875 L 12.296875 -8.640625 C 12.429688 -8.972656 12.332031 -9.207031 12 -9.34375 L 11.703125 -9.453125 L 11.734375 -9.59375 L 13.875 -9.59375 L 13.84375 -9.453125 L 13.5 -9.34375 C 13.300781 -9.269531 13.140625 -9.175781 13.015625 -9.0625 C 12.890625 -8.945312 12.785156 -8.796875 12.703125 -8.609375 L 8.859375 0.0625 L 7.828125 0.0625 L 7.03125 -6.78125 L 3.65625 0.0625 Z M 2.640625 0.0625 "/></g></g></g><g fill="#ffffff" fill-opacity="1"><g transform="translate(156.524547, 56.47147)"><g><path d="M 3.203125 0.21875 C 2.472656 0.21875 1.878906 -0.015625 1.421875 -0.484375 C 0.960938 -0.960938 0.734375 -1.640625 0.734375 -2.515625 C 0.734375 -3.140625 0.835938 -3.734375 1.046875 -4.296875 C 1.265625 -4.859375 1.566406 -5.359375 1.953125 -5.796875 C 2.335938 -6.234375 2.78125 -6.578125 3.28125 -6.828125 C 3.789062 -7.085938 4.34375 -7.21875 4.9375 -7.21875 C 5.539062 -7.21875 6.003906 -7.078125 6.328125 -6.796875 C 6.660156 -6.523438 6.828125 -6.160156 6.828125 -5.703125 C 6.828125 -5.328125 6.648438 -4.953125 6.296875 -4.578125 C 5.941406 -4.210938 5.441406 -3.878906 4.796875 -3.578125 C 4.160156 -3.285156 3.410156 -3.0625 2.546875 -2.90625 C 2.554688 -2.238281 2.703125 -1.75 2.984375 -1.4375 C 3.265625 -1.125 3.648438 -0.96875 4.140625 -0.96875 C 4.554688 -0.96875 4.9375 -1.082031 5.28125 -1.3125 C 5.632812 -1.539062 5.9375 -1.8125 6.1875 -2.125 L 6.328125 -2.015625 C 6.128906 -1.640625 5.878906 -1.28125 5.578125 -0.9375 C 5.273438 -0.601562 4.921875 -0.328125 4.515625 -0.109375 C 4.117188 0.109375 3.679688 0.21875 3.203125 0.21875 Z M 4.828125 -6.828125 C 4.609375 -6.828125 4.367188 -6.726562 4.109375 -6.53125 C 3.847656 -6.332031 3.601562 -6.066406 3.375 -5.734375 C 3.15625 -5.398438 2.96875 -5.015625 2.8125 -4.578125 C 2.664062 -4.148438 2.578125 -3.695312 2.546875 -3.21875 C 3.609375 -3.507812 4.363281 -3.890625 4.8125 -4.359375 C 5.269531 -4.835938 5.5 -5.378906 5.5 -5.984375 C 5.5 -6.273438 5.4375 -6.488281 5.3125 -6.625 C 5.1875 -6.757812 5.023438 -6.828125 4.828125 -6.828125 Z M 4.828125 -6.828125 "/></g></g></g><g fill="#ffffff" fill-opacity="1"><g transform="translate(163.150944, 56.47147)"><g><path d="M 2.25 0.21875 C 1.976562 0.21875 1.722656 0.15625 1.484375 0.03125 C 1.242188 -0.09375 1.046875 -0.300781 0.890625 -0.59375 C 0.742188 -0.882812 0.671875 -1.269531 0.671875 -1.75 C 0.671875 -2.257812 0.769531 -2.773438 0.96875 -3.296875 C 1.175781 -3.816406 1.445312 -4.3125 1.78125 -4.78125 C 2.125 -5.25 2.503906 -5.664062 2.921875 -6.03125 C 3.335938 -6.394531 3.769531 -6.679688 4.21875 -6.890625 C 4.664062 -7.109375 5.085938 -7.21875 5.484375 -7.21875 C 5.679688 -7.21875 5.863281 -7.179688 6.03125 -7.109375 C 6.195312 -7.035156 6.359375 -6.9375 6.515625 -6.8125 L 7.6875 -7.265625 L 7.8125 -7.1875 L 6.546875 -1.609375 C 6.472656 -1.335938 6.4375 -1.117188 6.4375 -0.953125 C 6.4375 -0.742188 6.53125 -0.640625 6.71875 -0.640625 C 6.851562 -0.640625 7.007812 -0.703125 7.1875 -0.828125 C 7.375 -0.953125 7.582031 -1.125 7.8125 -1.34375 L 7.921875 -1.21875 C 7.773438 -0.988281 7.59375 -0.765625 7.375 -0.546875 C 7.164062 -0.328125 6.925781 -0.144531 6.65625 0 C 6.382812 0.144531 6.097656 0.21875 5.796875 0.21875 C 5.472656 0.21875 5.207031 0.117188 5 -0.078125 C 4.800781 -0.273438 4.703125 -0.582031 4.703125 -1 C 4.703125 -1.132812 4.707031 -1.265625 4.71875 -1.390625 C 4.320312 -0.953125 3.910156 -0.570312 3.484375 -0.25 C 3.054688 0.0625 2.644531 0.21875 2.25 0.21875 Z M 2.390625 -2.40625 C 2.390625 -1.882812 2.472656 -1.507812 2.640625 -1.28125 C 2.804688 -1.0625 3.03125 -0.953125 3.3125 -0.953125 C 3.550781 -0.953125 3.785156 -1.019531 4.015625 -1.15625 C 4.242188 -1.300781 4.492188 -1.515625 4.765625 -1.796875 C 4.785156 -1.910156 4.8125 -2.03125 4.84375 -2.15625 L 5.765625 -6.34375 C 5.640625 -6.5 5.488281 -6.601562 5.3125 -6.65625 C 5.132812 -6.71875 4.976562 -6.75 4.84375 -6.75 C 4.425781 -6.75 3.988281 -6.503906 3.53125 -6.015625 C 3.175781 -5.609375 2.894531 -5.082031 2.6875 -4.4375 C 2.488281 -3.789062 2.390625 -3.113281 2.390625 -2.40625 Z M 2.390625 -2.40625 "/></g></g></g><g fill="#ffffff" fill-opacity="1"><g transform="translate(171.274087, 56.47147)"><g><path d="M 1.71875 0.21875 C 1.394531 0.21875 1.140625 0.132812 0.953125 -0.03125 C 0.765625 -0.195312 0.671875 -0.429688 0.671875 -0.734375 C 0.671875 -0.910156 0.6875 -1.125 0.71875 -1.375 C 0.757812 -1.625 0.820312 -1.941406 0.90625 -2.328125 L 1.734375 -6.34375 C 1.804688 -6.707031 1.867188 -7.039062 1.921875 -7.34375 C 1.972656 -7.644531 2.035156 -7.984375 2.109375 -8.359375 C 2.179688 -8.753906 2.023438 -9.019531 1.640625 -9.15625 L 1.390625 -9.234375 L 1.421875 -9.375 L 4.28125 -10.203125 L 4.359375 -10.09375 L 2.578125 -1.65625 C 2.546875 -1.507812 2.519531 -1.378906 2.5 -1.265625 C 2.476562 -1.160156 2.46875 -1.066406 2.46875 -0.984375 C 2.46875 -0.773438 2.5625 -0.671875 2.75 -0.671875 C 2.988281 -0.671875 3.34375 -0.890625 3.8125 -1.328125 L 3.953125 -1.203125 C 3.710938 -0.847656 3.40625 -0.519531 3.03125 -0.21875 C 2.664062 0.0703125 2.226562 0.21875 1.71875 0.21875 Z M 1.71875 0.21875 "/></g></g></g><g fill="#ffffff" fill-opacity="1"><g transform="translate(175.270273, 56.47147)"><g><path d="M 2.09375 0.21875 C 1.789062 0.21875 1.539062 0.140625 1.34375 -0.015625 C 1.144531 -0.179688 1.046875 -0.421875 1.046875 -0.734375 C 1.046875 -0.921875 1.0625 -1.128906 1.09375 -1.359375 C 1.132812 -1.585938 1.179688 -1.832031 1.234375 -2.09375 L 2.234375 -6.6875 L 1.03125 -6.6875 L 1.078125 -6.859375 L 1.59375 -6.921875 C 1.863281 -6.953125 2.101562 -7.019531 2.3125 -7.125 C 2.519531 -7.226562 2.710938 -7.378906 2.890625 -7.578125 L 4.296875 -8.984375 L 4.515625 -8.984375 L 4.109375 -7 L 5.6875 -7 L 5.609375 -6.6875 L 4.03125 -6.6875 L 3.03125 -1.84375 C 2.988281 -1.664062 2.957031 -1.507812 2.9375 -1.375 C 2.914062 -1.238281 2.90625 -1.128906 2.90625 -1.046875 C 2.90625 -0.953125 2.929688 -0.875 2.984375 -0.8125 C 3.046875 -0.757812 3.113281 -0.734375 3.1875 -0.734375 C 3.320312 -0.734375 3.46875 -0.785156 3.625 -0.890625 C 3.78125 -1.003906 3.972656 -1.171875 4.203125 -1.390625 L 4.375 -1.25 C 4.132812 -0.894531 3.816406 -0.5625 3.421875 -0.25 C 3.035156 0.0625 2.59375 0.21875 2.09375 0.21875 Z M 2.09375 0.21875 "/></g></g></g><g fill="#ffffff" fill-opacity="1"><g transform="translate(180.240073, 56.47147)"><g><path d="M 0.484375 0.09375 L 0.390625 0 L 1.71875 -6.34375 C 1.789062 -6.707031 1.851562 -7.035156 1.90625 -7.328125 C 1.96875 -7.628906 2.035156 -7.960938 2.109375 -8.328125 C 2.179688 -8.742188 2.019531 -9.023438 1.625 -9.171875 L 1.390625 -9.234375 L 1.421875 -9.375 L 4.203125 -10.203125 L 4.3125 -10.09375 L 3.3125 -5.453125 C 3.800781 -5.960938 4.316406 -6.382812 4.859375 -6.71875 C 5.410156 -7.050781 5.921875 -7.21875 6.390625 -7.21875 C 6.703125 -7.21875 6.957031 -7.117188 7.15625 -6.921875 C 7.351562 -6.734375 7.453125 -6.441406 7.453125 -6.046875 C 7.453125 -5.847656 7.429688 -5.640625 7.390625 -5.421875 C 7.347656 -5.203125 7.300781 -4.976562 7.25 -4.75 L 6.515625 -1.78125 C 6.472656 -1.59375 6.429688 -1.429688 6.390625 -1.296875 C 6.359375 -1.171875 6.34375 -1.066406 6.34375 -0.984375 C 6.34375 -0.785156 6.429688 -0.6875 6.609375 -0.6875 C 6.859375 -0.6875 7.210938 -0.898438 7.671875 -1.328125 L 7.796875 -1.1875 C 7.566406 -0.832031 7.25 -0.507812 6.84375 -0.21875 C 6.445312 0.0703125 6 0.21875 5.5 0.21875 C 5.175781 0.21875 4.925781 0.144531 4.75 0 C 4.582031 -0.15625 4.5 -0.367188 4.5 -0.640625 C 4.5 -0.847656 4.519531 -1.054688 4.5625 -1.265625 C 4.613281 -1.484375 4.675781 -1.710938 4.75 -1.953125 L 5.390625 -4.515625 C 5.460938 -4.773438 5.523438 -5.015625 5.578125 -5.234375 C 5.628906 -5.453125 5.65625 -5.640625 5.65625 -5.796875 C 5.65625 -6.128906 5.492188 -6.296875 5.171875 -6.296875 C 4.703125 -6.296875 4.078125 -5.910156 3.296875 -5.140625 L 2.859375 -3.109375 C 2.734375 -2.515625 2.625 -1.976562 2.53125 -1.5 C 2.445312 -1.019531 2.359375 -0.519531 2.265625 0 Z M 0.484375 0.09375 "/></g></g></g></svg>