<svg xmlns="http://www.w3.org/2000/svg" xmlns:xlink="http://www.w3.org/1999/xlink" width="280" zoomAndPan="magnify" viewBox="0 0 210 60" height="80" preserveAspectRatio="xMidYMid meet" version="1.0"><defs><g/></defs><rect x="-21" width="252" fill="#ffffff" y="-6" height="72" fill-opacity="1"/><rect x="-21" width="252" fill="#0f2952" y="-6" height="72" fill-opacity="1"/><path fill="#ffffff" d="M 6.144531 26.082031 L 11.875 26.082031 L 11.875 29.882812 L 6.144531 29.882812 L 6.144531 37.640625 L 13.335938 37.640625 L 13.335938 41.4375 L 1.980469 41.4375 L 1.980469 14.910156 L 13.335938 14.910156 L 13.335938 18.691406 L 6.144531 18.691406 Z M 6.144531 26.082031 " fill-opacity="1" fill-rule="nonzero"/><path fill="#ffffff" d="M 15.578125 21.269531 C 15.578125 19.132812 16.117188 17.488281 17.203125 16.332031 C 18.285156 15.1875 19.851562 14.605469 21.894531 14.605469 C 23.953125 14.605469 25.523438 15.1875 26.609375 16.332031 C 27.691406 17.488281 28.234375 19.132812 28.234375 21.269531 L 28.234375 35.082031 C 28.234375 36.574219 27.96875 37.804688 27.441406 38.777344 C 27.53125 39.039062 27.664062 39.199219 27.828125 39.265625 C 28 39.320312 28.265625 39.347656 28.621094 39.347656 L 28.984375 39.347656 L 28.984375 43.0625 L 28.417969 43.0625 C 27.480469 43.0625 26.714844 42.90625 26.121094 42.597656 C 25.539062 42.28125 25.105469 41.835938 24.820312 41.257812 C 24.382812 41.410156 23.933594 41.519531 23.460938 41.601562 C 22.984375 41.691406 22.464844 41.742188 21.894531 41.742188 C 19.851562 41.742188 18.285156 41.171875 17.203125 40.015625 C 16.117188 38.871094 15.578125 37.222656 15.578125 35.082031 Z M 19.742188 35.34375 C 19.742188 36.296875 19.9375 36.964844 20.332031 37.355469 C 20.722656 37.753906 21.246094 37.945312 21.894531 37.945312 C 22.554688 37.945312 23.085938 37.753906 23.480469 37.355469 C 23.871094 36.964844 24.070312 36.296875 24.070312 35.34375 L 24.070312 21.003906 C 24.070312 20.046875 23.871094 19.371094 23.480469 18.972656 C 23.085938 18.582031 22.554688 18.386719 21.894531 18.386719 C 21.246094 18.386719 20.722656 18.582031 20.332031 18.972656 C 19.9375 19.371094 19.742188 20.046875 19.742188 21.003906 Z M 19.742188 35.34375 " fill-opacity="1" fill-rule="nonzero"/><path fill="#ffffff" d="M 34.910156 14.910156 L 34.910156 35.367188 C 34.910156 36.332031 35.097656 37 35.476562 37.375 C 35.867188 37.757812 36.398438 37.945312 37.0625 37.945312 C 37.710938 37.945312 38.230469 37.757812 38.625 37.375 C 39.015625 37 39.214844 36.332031 39.214844 35.367188 L 39.214844 14.910156 L 43.15625 14.910156 L 43.15625 35.101562 C 43.15625 37.253906 42.628906 38.910156 41.570312 40.058594 C 40.527344 41.210938 38.980469 41.785156 36.941406 41.785156 C 34.894531 41.785156 33.34375 41.210938 32.289062 40.058594 C 31.242188 38.910156 30.726562 37.253906 30.726562 35.101562 L 30.726562 14.910156 Z M 34.910156 14.910156 " fill-opacity="1" fill-rule="nonzero"/><path fill="#ffffff" d="M 46.007812 14.910156 L 50.171875 14.910156 L 50.171875 41.4375 L 46.007812 41.4375 Z M 46.007812 14.910156 " fill-opacity="1" fill-rule="nonzero"/><path fill="#ffffff" d="M 52.070312 14.910156 L 64.945312 14.910156 L 64.945312 18.691406 L 60.601562 18.691406 L 60.601562 41.4375 L 56.414062 41.4375 L 56.414062 18.691406 L 52.070312 18.691406 Z M 52.070312 14.910156 " fill-opacity="1" fill-rule="nonzero"/><path fill="#ffffff" d="M 70.746094 32.644531 L 65.464844 14.910156 L 69.832031 14.910156 L 73.019531 26.996094 L 76.210938 14.910156 L 80.171875 14.910156 L 74.910156 32.644531 L 74.910156 41.4375 L 70.746094 41.4375 Z M 70.746094 32.644531 " fill-opacity="1" fill-rule="nonzero"/><path fill="#ffffff" d="M 87.195312 21.269531 C 87.195312 19.132812 87.703125 17.488281 88.71875 16.332031 C 89.742188 15.1875 91.28125 14.605469 93.328125 14.605469 C 95.371094 14.605469 96.902344 15.1875 97.917969 16.332031 C 98.945312 17.488281 99.460938 19.132812 99.460938 21.269531 L 99.460938 22.304688 L 95.523438 22.304688 L 95.523438 21.003906 C 95.523438 20.046875 95.339844 19.371094 94.972656 18.972656 C 94.609375 18.582031 94.089844 18.386719 93.429688 18.386719 C 92.78125 18.386719 92.273438 18.582031 91.90625 18.972656 C 91.539062 19.371094 91.359375 20.046875 91.359375 21.003906 C 91.359375 21.914062 91.550781 22.722656 91.945312 23.421875 C 92.351562 24.113281 92.859375 24.773438 93.46875 25.394531 C 94.078125 26.003906 94.730469 26.621094 95.421875 27.242188 C 96.121094 27.867188 96.769531 28.542969 97.371094 29.273438 C 97.980469 30.003906 98.488281 30.835938 98.894531 31.769531 C 99.300781 32.707031 99.503906 33.8125 99.503906 35.082031 C 99.503906 37.222656 98.976562 38.871094 97.917969 40.015625 C 96.871094 41.171875 95.328125 41.742188 93.289062 41.742188 C 91.242188 41.742188 89.691406 41.171875 88.636719 40.015625 C 87.589844 38.871094 87.070312 37.222656 87.070312 35.082031 L 87.070312 33.253906 L 91.011719 33.253906 L 91.011719 35.34375 C 91.011719 36.296875 91.207031 36.960938 91.601562 37.335938 C 91.992188 37.71875 92.515625 37.90625 93.164062 37.90625 C 93.824219 37.90625 94.355469 37.71875 94.75 37.335938 C 95.140625 36.960938 95.339844 36.296875 95.339844 35.34375 C 95.339844 34.425781 95.136719 33.621094 94.730469 32.929688 C 94.324219 32.238281 93.816406 31.582031 93.207031 30.957031 C 92.597656 30.339844 91.945312 29.71875 91.257812 29.109375 C 90.566406 28.492188 89.914062 27.808594 89.304688 27.078125 C 88.695312 26.347656 88.1875 25.515625 87.78125 24.582031 C 87.386719 23.644531 87.195312 22.542969 87.195312 21.269531 Z M 87.195312 21.269531 " fill-opacity="1" fill-rule="nonzero"/><path fill="#ffffff" d="M 105.710938 35.34375 C 105.710938 36.296875 105.902344 36.964844 106.300781 37.355469 C 106.691406 37.753906 107.214844 37.945312 107.863281 37.945312 C 108.523438 37.945312 109.050781 37.753906 109.449219 37.355469 C 109.839844 36.964844 110.039062 36.296875 110.039062 35.34375 L 110.039062 21.003906 C 110.039062 20.046875 109.839844 19.371094 109.449219 18.972656 C 109.050781 18.582031 108.523438 18.386719 107.863281 18.386719 C 107.214844 18.386719 106.691406 18.582031 106.300781 18.972656 C 105.902344 19.371094 105.710938 20.046875 105.710938 21.003906 Z M 101.546875 21.269531 C 101.546875 19.132812 102.085938 17.488281 103.171875 16.332031 C 104.253906 15.1875 105.816406 14.605469 107.863281 14.605469 C 109.921875 14.605469 111.488281 15.1875 112.578125 16.332031 C 113.65625 17.488281 114.203125 19.132812 114.203125 21.269531 L 114.203125 35.082031 C 114.203125 37.222656 113.65625 38.871094 112.578125 40.015625 C 111.488281 41.171875 109.921875 41.742188 107.863281 41.742188 C 105.816406 41.742188 104.253906 41.171875 103.171875 40.015625 C 102.085938 38.871094 101.546875 37.222656 101.546875 35.082031 Z M 101.546875 21.269531 " fill-opacity="1" fill-rule="nonzero"/><path fill="#ffffff" d="M 116.894531 14.910156 L 121.058594 14.910156 L 121.058594 37.640625 L 127.925781 37.640625 L 127.925781 41.4375 L 116.894531 41.4375 Z M 116.894531 14.910156 " fill-opacity="1" fill-rule="nonzero"/><path fill="#ffffff" d="M 133.796875 14.910156 L 133.796875 35.367188 C 133.796875 36.332031 133.984375 37 134.367188 37.375 C 134.757812 37.757812 135.285156 37.945312 135.949219 37.945312 C 136.601562 37.945312 137.117188 37.757812 137.515625 37.375 C 137.90625 37 138.101562 36.332031 138.101562 35.367188 L 138.101562 14.910156 L 142.042969 14.910156 L 142.042969 35.101562 C 142.042969 37.253906 141.515625 38.910156 140.460938 40.058594 C 139.414062 41.210938 137.871094 41.785156 135.828125 41.785156 C 133.78125 41.785156 132.234375 41.210938 131.175781 40.058594 C 130.128906 38.910156 129.613281 37.253906 129.613281 35.101562 L 129.613281 14.910156 Z M 133.796875 14.910156 " fill-opacity="1" fill-rule="nonzero"/><path fill="#ffffff" d="M 143.757812 14.910156 L 156.636719 14.910156 L 156.636719 18.691406 L 152.289062 18.691406 L 152.289062 41.4375 L 148.105469 41.4375 L 148.105469 18.691406 L 143.757812 18.691406 Z M 143.757812 14.910156 " fill-opacity="1" fill-rule="nonzero"/><path fill="#ffffff" d="M 158.535156 14.910156 L 162.699219 14.910156 L 162.699219 41.4375 L 158.535156 41.4375 Z M 158.535156 14.910156 " fill-opacity="1" fill-rule="nonzero"/><path fill="#ffffff" d="M 169.550781 35.34375 C 169.550781 36.296875 169.746094 36.964844 170.140625 37.355469 C 170.53125 37.753906 171.054688 37.945312 171.703125 37.945312 C 172.363281 37.945312 172.894531 37.753906 173.289062 37.355469 C 173.679688 36.964844 173.878906 36.296875 173.878906 35.34375 L 173.878906 21.003906 C 173.878906 20.046875 173.679688 19.371094 173.289062 18.972656 C 172.894531 18.582031 172.363281 18.386719 171.703125 18.386719 C 171.054688 18.386719 170.53125 18.582031 170.140625 18.972656 C 169.746094 19.371094 169.550781 20.046875 169.550781 21.003906 Z M 165.386719 21.269531 C 165.386719 19.132812 165.925781 17.488281 167.011719 16.332031 C 168.09375 15.1875 169.660156 14.605469 171.703125 14.605469 C 173.761719 14.605469 175.332031 15.1875 176.417969 16.332031 C 177.5 17.488281 178.042969 19.132812 178.042969 21.269531 L 178.042969 35.082031 C 178.042969 37.222656 177.5 38.871094 176.417969 40.015625 C 175.332031 41.171875 173.761719 41.742188 171.703125 41.742188 C 169.660156 41.742188 168.09375 41.171875 167.011719 40.015625 C 165.925781 38.871094 165.386719 37.222656 165.386719 35.082031 Z M 165.386719 21.269531 " fill-opacity="1" fill-rule="nonzero"/><path fill="#ffffff" d="M 184.453125 22.222656 L 184.453125 41.4375 L 180.695312 41.4375 L 180.695312 14.910156 L 185.917969 14.910156 L 190.203125 30.796875 L 190.203125 14.910156 L 193.917969 14.910156 L 193.917969 41.4375 L 189.632812 41.4375 Z M 184.453125 22.222656 " fill-opacity="1" fill-rule="nonzero"/><g fill="#ffffff" fill-opacity="1"><g transform="translate(194.8336, 40.775844)"><g><path d="M 0.984375 -19.984375 C 0.984375 -22.117188 1.488281 -23.753906 2.5 -24.890625 C 3.507812 -26.035156 5.03125 -26.609375 7.0625 -26.609375 C 9.09375 -26.609375 10.613281 -26.035156 11.625 -24.890625 C 12.644531 -23.753906 13.15625 -22.117188 13.15625 -19.984375 L 13.15625 -18.984375 L 9.25 -18.984375 L 9.25 -20.25 C 9.25 -21.207031 9.066406 -21.878906 8.703125 -22.265625 C 8.335938 -22.648438 7.828125 -22.84375 7.171875 -22.84375 C 6.523438 -22.84375 6.019531 -22.648438 5.65625 -22.265625 C 5.289062 -21.878906 5.109375 -21.207031 5.109375 -20.25 C 5.109375 -19.351562 5.304688 -18.554688 5.703125 -17.859375 C 6.109375 -17.171875 6.609375 -16.519531 7.203125 -15.90625 C 7.804688 -15.300781 8.453125 -14.691406 9.140625 -14.078125 C 9.835938 -13.460938 10.484375 -12.789062 11.078125 -12.0625 C 11.679688 -11.332031 12.179688 -10.503906 12.578125 -9.578125 C 12.984375 -8.648438 13.1875 -7.5625 13.1875 -6.3125 C 13.1875 -4.1875 12.664062 -2.550781 11.625 -1.40625 C 10.59375 -0.269531 9.0625 0.296875 7.03125 0.296875 C 5 0.296875 3.460938 -0.269531 2.421875 -1.40625 C 1.378906 -2.550781 0.859375 -4.1875 0.859375 -6.3125 L 0.859375 -8.109375 L 4.765625 -8.109375 L 4.765625 -6.046875 C 4.765625 -5.097656 4.957031 -4.4375 5.34375 -4.0625 C 5.738281 -3.6875 6.265625 -3.5 6.921875 -3.5 C 7.566406 -3.5 8.082031 -3.6875 8.46875 -4.0625 C 8.863281 -4.4375 9.0625 -5.097656 9.0625 -6.046875 C 9.0625 -6.953125 8.859375 -7.75 8.453125 -8.4375 C 8.054688 -9.125 7.554688 -9.773438 6.953125 -10.390625 C 6.347656 -11.003906 5.703125 -11.617188 5.015625 -12.234375 C 4.328125 -12.847656 3.679688 -13.515625 3.078125 -14.234375 C 2.472656 -14.960938 1.972656 -15.789062 1.578125 -16.71875 C 1.179688 -17.644531 0.984375 -18.734375 0.984375 -19.984375 Z M 0.984375 -19.984375 "/></g></g></g></svg>