<svg xmlns="http://www.w3.org/2000/svg" xmlns:xlink="http://www.w3.org/1999/xlink" width="100" zoomAndPan="magnify" viewBox="0 0 75 74.999997" height="100" preserveAspectRatio="xMidYMid meet" version="1.0"><path fill="#000000" d="M 15.265625 33.171875 L 29.066406 33.171875 L 29.066406 42.324219 L 15.265625 42.324219 L 15.265625 61.015625 L 32.589844 61.015625 L 32.589844 70.167969 L 5.230469 70.167969 L 5.230469 6.253906 L 32.589844 6.253906 L 32.589844 15.359375 L 15.265625 15.359375 Z M 15.265625 33.171875 " fill-opacity="1" fill-rule="nonzero"/><path fill="#000000" d="M 37.992188 21.574219 C 37.992188 16.421875 39.289062 12.457031 41.90625 9.679688 C 44.511719 6.914062 48.28125 5.519531 53.210938 5.519531 C 58.164062 5.519531 61.945312 6.914062 64.566406 9.679688 C 67.171875 12.457031 68.480469 16.421875 68.480469 21.574219 L 68.480469 54.851562 C 68.480469 58.449219 67.84375 61.410156 66.570312 63.757812 C 66.792969 64.382812 67.109375 64.773438 67.5 64.933594 C 67.917969 65.066406 68.554688 65.128906 69.410156 65.128906 L 70.289062 65.128906 L 70.289062 74.082031 L 68.921875 74.082031 C 66.667969 74.082031 64.820312 73.703125 63.390625 72.957031 C 61.984375 72.199219 60.941406 71.121094 60.257812 69.726562 C 59.207031 70.09375 58.117188 70.363281 56.980469 70.558594 C 55.828125 70.78125 54.582031 70.902344 53.210938 70.902344 C 48.28125 70.902344 44.511719 69.519531 41.90625 66.742188 C 39.289062 63.976562 37.992188 60.011719 37.992188 54.851562 Z M 48.023438 55.488281 C 48.023438 57.773438 48.488281 59.390625 49.441406 60.332031 C 50.386719 61.285156 51.644531 61.75 53.210938 61.75 C 54.800781 61.75 56.074219 61.285156 57.027344 60.332031 C 57.96875 59.390625 58.449219 57.773438 58.449219 55.488281 L 58.449219 20.9375 C 58.449219 18.625 57.96875 16.996094 57.027344 16.042969 C 56.074219 15.101562 54.800781 14.625 53.210938 14.625 C 51.644531 14.625 50.386719 15.101562 49.441406 16.042969 C 48.488281 16.996094 48.023438 18.625 48.023438 20.9375 Z M 48.023438 55.488281 " fill-opacity="1" fill-rule="nonzero"/></svg>